M48
; DRILL file {KiCad (5.1.10)-1} date 02/28/22 00:28:25
; FORMAT={-:-/ absolute / inch / decimal}
; #@! TF.CreationDate,2022-02-28T00:28:25+01:00
; #@! TF.GenerationSoftware,Kicad,Pcbnew,(5.1.10)-1
; #@! TF.FileFunction,Plated,1,2,PTH
FMAT,2
INCH
T1C0.0157
T2C0.0315
T3C0.0394
T4C0.0400
%
G90
G05
T1
X4.3345Y-3.7655
X4.609Y-4.1475
X4.6255Y-3.904
X4.9145Y-4.1915
X4.9235Y-2.6275
X4.9785Y-2.6625
X5.007Y-4.218
X5.05Y-4.269
X5.1885Y-3.8965
X6.4125Y-4.0225
T2
X4.1055Y-2.3685
X4.1055Y-2.4685
X4.4055Y-2.3685
X4.4055Y-2.4685
X4.8215Y-3.513
X4.9002Y-3.513
T3
X4.5235Y-2.943
X4.5235Y-3.043
X4.5235Y-3.143
X4.5235Y-3.243
X4.5235Y-3.343
X4.5235Y-3.443
X4.5235Y-3.543
X5.144Y-3.0185
X5.144Y-3.1185
X5.144Y-3.2185
X5.144Y-3.3185
X5.144Y-3.4185
X5.144Y-3.5185
X5.144Y-3.6185
X5.42Y-3.087
X5.42Y-3.187
X5.42Y-3.287
X5.42Y-3.387
X5.42Y-3.487
X5.42Y-3.587
X5.42Y-3.687
X5.7005Y-3.0845
X5.7005Y-3.1845
X5.7005Y-3.2845
X5.7005Y-3.3845
X5.7005Y-3.4845
X5.7005Y-3.5845
X5.7005Y-3.6845
X5.7795Y-2.5505
X5.8795Y-2.5505
X5.979Y-3.0845
X5.979Y-3.1845
X5.979Y-3.2845
X5.979Y-3.3845
X5.979Y-3.4845
X5.979Y-3.5845
X5.979Y-3.6845
X5.9795Y-2.5505
X6.0795Y-2.5505
X6.1795Y-2.5505
X6.272Y-3.0865
X6.272Y-3.1865
X6.272Y-3.2865
X6.272Y-3.3865
X6.272Y-3.4865
X6.272Y-3.5865
X6.272Y-3.6865
X6.7325Y-2.5505
X6.8325Y-2.5505
X6.9325Y-2.5505
X7.0325Y-2.5505
X7.085Y-3.2375
X7.085Y-3.3375
X7.085Y-3.4375
X7.085Y-3.5375
X7.085Y-3.6375
X7.085Y-3.7375
X7.085Y-3.8375
X7.1325Y-2.5505
X7.2325Y-2.5505
X7.3325Y-2.5505
X7.4235Y-3.2315
X7.4235Y-3.3315
X7.4235Y-3.4315
X7.4235Y-3.5315
X7.4235Y-3.6315
X7.4235Y-3.7315
X7.4235Y-3.8315
X7.4325Y-2.5505
T4
X4.7775Y-2.352
X4.8775Y-2.352
X4.9775Y-2.352
X5.0775Y-2.352
X5.1375Y-4.252
X5.1775Y-2.352
X5.2375Y-4.252
X5.2775Y-2.352
X5.3375Y-4.252
X5.3775Y-2.352
X5.4375Y-4.252
X5.4775Y-2.352
X5.5375Y-4.252
X5.5775Y-2.352
X5.6375Y-4.252
X5.6775Y-2.352
X5.7375Y-4.252
X5.8375Y-2.352
X5.8375Y-4.252
X5.9375Y-2.352
X6.0375Y-2.352
X6.0375Y-4.252
X6.1375Y-2.352
X6.1375Y-4.252
X6.2375Y-2.352
X6.2375Y-4.252
X6.3375Y-2.352
X6.3375Y-4.252
X6.4375Y-2.352
X6.4375Y-4.252
X6.5375Y-2.352
X6.5375Y-4.252
X6.5425Y-3.152
X6.5425Y-3.252
X6.5425Y-3.352
X6.6375Y-4.252
X6.6425Y-3.152
X6.6425Y-3.252
X6.6425Y-3.352
X6.7375Y-2.352
X6.7375Y-4.252
X6.8375Y-2.352
X6.9375Y-2.352
X6.9375Y-4.252
X7.0375Y-2.352
X7.0375Y-4.252
X7.1375Y-2.352
X7.1375Y-4.252
X7.2375Y-2.352
X7.2375Y-4.252
X7.3375Y-2.352
X7.3375Y-4.252
X7.4375Y-2.352
X7.4375Y-4.252
X7.5375Y-4.252
X7.6375Y-4.252
X7.7375Y-2.352
X7.7375Y-2.452
X7.7375Y-2.552
X7.7375Y-2.652
X7.7375Y-2.752
X7.7375Y-2.852
X7.7375Y-2.952
X7.7375Y-3.052
X7.7375Y-3.152
X7.7375Y-3.252
X7.7375Y-3.352
X7.7375Y-3.452
X7.7375Y-3.552
X7.7375Y-3.652
X7.7375Y-3.752
X7.7375Y-3.852
X7.7375Y-3.952
X7.7375Y-4.052
X7.8375Y-2.352
X7.8375Y-2.452
X7.8375Y-2.552
X7.8375Y-2.652
X7.8375Y-2.752
X7.8375Y-2.852
X7.8375Y-2.952
X7.8375Y-3.052
X7.8375Y-3.152
X7.8375Y-3.252
X7.8375Y-3.352
X7.8375Y-3.452
X7.8375Y-3.552
X7.8375Y-3.652
X7.8375Y-3.752
X7.8375Y-3.852
X7.8375Y-3.952
X7.8375Y-4.052
T0
M30
