%TF.GenerationSoftware,KiCad,Pcbnew,(5.1.10)-1*%
%TF.CreationDate,2022-02-23T23:36:43+01:00*%
%TF.ProjectId,E-nose,452d6e6f-7365-42e6-9b69-6361645f7063,rev?*%
%TF.SameCoordinates,Original*%
%TF.FileFunction,Legend,Bot*%
%TF.FilePolarity,Positive*%
%FSLAX46Y46*%
G04 Gerber Fmt 4.6, Leading zero omitted, Abs format (unit mm)*
G04 Created by KiCad (PCBNEW (5.1.10)-1) date 2022-02-23 23:36:43*
%MOMM*%
%LPD*%
G01*
G04 APERTURE LIST*
%ADD10C,0.150000*%
%ADD11C,0.120000*%
G04 APERTURE END LIST*
D10*
X174756771Y-74275514D02*
X174756771Y-74608847D01*
X175280580Y-74751704D02*
X175280580Y-74275514D01*
X174280580Y-74275514D01*
X174280580Y-74751704D01*
X174899628Y-75180276D02*
X174899628Y-75942180D01*
X175280580Y-76418371D02*
X174280580Y-76418371D01*
X175280580Y-76989800D01*
X174280580Y-76989800D01*
X175280580Y-77608847D02*
X175232961Y-77513609D01*
X175185342Y-77465990D01*
X175090104Y-77418371D01*
X174804390Y-77418371D01*
X174709152Y-77465990D01*
X174661533Y-77513609D01*
X174613914Y-77608847D01*
X174613914Y-77751704D01*
X174661533Y-77846942D01*
X174709152Y-77894561D01*
X174804390Y-77942180D01*
X175090104Y-77942180D01*
X175185342Y-77894561D01*
X175232961Y-77846942D01*
X175280580Y-77751704D01*
X175280580Y-77608847D01*
X175232961Y-78323133D02*
X175280580Y-78418371D01*
X175280580Y-78608847D01*
X175232961Y-78704085D01*
X175137723Y-78751704D01*
X175090104Y-78751704D01*
X174994866Y-78704085D01*
X174947247Y-78608847D01*
X174947247Y-78465990D01*
X174899628Y-78370752D01*
X174804390Y-78323133D01*
X174756771Y-78323133D01*
X174661533Y-78370752D01*
X174613914Y-78465990D01*
X174613914Y-78608847D01*
X174661533Y-78704085D01*
X175232961Y-79561228D02*
X175280580Y-79465990D01*
X175280580Y-79275514D01*
X175232961Y-79180276D01*
X175137723Y-79132657D01*
X174756771Y-79132657D01*
X174661533Y-79180276D01*
X174613914Y-79275514D01*
X174613914Y-79465990D01*
X174661533Y-79561228D01*
X174756771Y-79608847D01*
X174852009Y-79608847D01*
X174947247Y-79132657D01*
X175280580Y-80799323D02*
X174280580Y-80799323D01*
X174280580Y-81037419D01*
X174328200Y-81180276D01*
X174423438Y-81275514D01*
X174518676Y-81323133D01*
X174709152Y-81370752D01*
X174852009Y-81370752D01*
X175042485Y-81323133D01*
X175137723Y-81275514D01*
X175232961Y-81180276D01*
X175280580Y-81037419D01*
X175280580Y-80799323D01*
X175280580Y-82227895D02*
X174756771Y-82227895D01*
X174661533Y-82180276D01*
X174613914Y-82085038D01*
X174613914Y-81894561D01*
X174661533Y-81799323D01*
X175232961Y-82227895D02*
X175280580Y-82132657D01*
X175280580Y-81894561D01*
X175232961Y-81799323D01*
X175137723Y-81751704D01*
X175042485Y-81751704D01*
X174947247Y-81799323D01*
X174899628Y-81894561D01*
X174899628Y-82132657D01*
X174852009Y-82227895D01*
X174613914Y-82561228D02*
X174613914Y-82942180D01*
X174280580Y-82704085D02*
X175137723Y-82704085D01*
X175232961Y-82751704D01*
X175280580Y-82846942D01*
X175280580Y-82942180D01*
X175280580Y-83704085D02*
X174756771Y-83704085D01*
X174661533Y-83656466D01*
X174613914Y-83561228D01*
X174613914Y-83370752D01*
X174661533Y-83275514D01*
X175232961Y-83704085D02*
X175280580Y-83608847D01*
X175280580Y-83370752D01*
X175232961Y-83275514D01*
X175137723Y-83227895D01*
X175042485Y-83227895D01*
X174947247Y-83275514D01*
X174899628Y-83370752D01*
X174899628Y-83608847D01*
X174852009Y-83704085D01*
X175280580Y-84656466D02*
X175280580Y-84180276D01*
X174280580Y-84180276D01*
X175280580Y-85132657D02*
X175232961Y-85037419D01*
X175185342Y-84989800D01*
X175090104Y-84942180D01*
X174804390Y-84942180D01*
X174709152Y-84989800D01*
X174661533Y-85037419D01*
X174613914Y-85132657D01*
X174613914Y-85275514D01*
X174661533Y-85370752D01*
X174709152Y-85418371D01*
X174804390Y-85465990D01*
X175090104Y-85465990D01*
X175185342Y-85418371D01*
X175232961Y-85370752D01*
X175280580Y-85275514D01*
X175280580Y-85132657D01*
X174613914Y-86323133D02*
X175423438Y-86323133D01*
X175518676Y-86275514D01*
X175566295Y-86227895D01*
X175613914Y-86132657D01*
X175613914Y-85989800D01*
X175566295Y-85894561D01*
X175232961Y-86323133D02*
X175280580Y-86227895D01*
X175280580Y-86037419D01*
X175232961Y-85942180D01*
X175185342Y-85894561D01*
X175090104Y-85846942D01*
X174804390Y-85846942D01*
X174709152Y-85894561D01*
X174661533Y-85942180D01*
X174613914Y-86037419D01*
X174613914Y-86227895D01*
X174661533Y-86323133D01*
X174613914Y-87227895D02*
X175423438Y-87227895D01*
X175518676Y-87180276D01*
X175566295Y-87132657D01*
X175613914Y-87037419D01*
X175613914Y-86894561D01*
X175566295Y-86799323D01*
X175232961Y-87227895D02*
X175280580Y-87132657D01*
X175280580Y-86942180D01*
X175232961Y-86846942D01*
X175185342Y-86799323D01*
X175090104Y-86751704D01*
X174804390Y-86751704D01*
X174709152Y-86799323D01*
X174661533Y-86846942D01*
X174613914Y-86942180D01*
X174613914Y-87132657D01*
X174661533Y-87227895D01*
X175232961Y-88085038D02*
X175280580Y-87989800D01*
X175280580Y-87799323D01*
X175232961Y-87704085D01*
X175137723Y-87656466D01*
X174756771Y-87656466D01*
X174661533Y-87704085D01*
X174613914Y-87799323D01*
X174613914Y-87989800D01*
X174661533Y-88085038D01*
X174756771Y-88132657D01*
X174852009Y-88132657D01*
X174947247Y-87656466D01*
X175280580Y-88561228D02*
X174613914Y-88561228D01*
X174804390Y-88561228D02*
X174709152Y-88608847D01*
X174661533Y-88656466D01*
X174613914Y-88751704D01*
X174613914Y-88846942D01*
X174280580Y-89799323D02*
X175280580Y-90132657D01*
X174280580Y-90465990D01*
X175280580Y-91323133D02*
X175280580Y-90751704D01*
X175280580Y-91037419D02*
X174280580Y-91037419D01*
X174423438Y-90942180D01*
X174518676Y-90846942D01*
X174566295Y-90751704D01*
X175185342Y-91751704D02*
X175232961Y-91799323D01*
X175280580Y-91751704D01*
X175232961Y-91704085D01*
X175185342Y-91751704D01*
X175280580Y-91751704D01*
X174280580Y-92418371D02*
X174280580Y-92513609D01*
X174328200Y-92608847D01*
X174375819Y-92656466D01*
X174471057Y-92704085D01*
X174661533Y-92751704D01*
X174899628Y-92751704D01*
X175090104Y-92704085D01*
X175185342Y-92656466D01*
X175232961Y-92608847D01*
X175280580Y-92513609D01*
X175280580Y-92418371D01*
X175232961Y-92323133D01*
X175185342Y-92275514D01*
X175090104Y-92227895D01*
X174899628Y-92180276D01*
X174661533Y-92180276D01*
X174471057Y-92227895D01*
X174375819Y-92275514D01*
X174328200Y-92323133D01*
X174280580Y-92418371D01*
D11*
%TO.C,JP6*%
X128023900Y-79301800D02*
G75*
G03*
X128723900Y-78601800I0J700000D01*
G01*
X126723900Y-78601800D02*
G75*
G03*
X127423900Y-79301800I700000J0D01*
G01*
X127423900Y-76501800D02*
G75*
G03*
X126723900Y-77201800I0J-700000D01*
G01*
X128723900Y-77201800D02*
G75*
G03*
X128023900Y-76501800I-700000J0D01*
G01*
X127423900Y-79301800D02*
X128023900Y-79301800D01*
X126723900Y-77201800D02*
X126723900Y-78601800D01*
X128023900Y-76501800D02*
X127423900Y-76501800D01*
X128723900Y-78601800D02*
X128723900Y-77201800D01*
%TO.C,JP7*%
X134920000Y-81306100D02*
G75*
G03*
X135620000Y-80606100I0J700000D01*
G01*
X133620000Y-80606100D02*
G75*
G03*
X134320000Y-81306100I700000J0D01*
G01*
X134320000Y-78506100D02*
G75*
G03*
X133620000Y-79206100I0J-700000D01*
G01*
X135620000Y-79206100D02*
G75*
G03*
X134920000Y-78506100I-700000J0D01*
G01*
X134320000Y-81306100D02*
X134920000Y-81306100D01*
X133620000Y-79206100D02*
X133620000Y-80606100D01*
X134920000Y-78506100D02*
X134320000Y-78506100D01*
X135620000Y-80606100D02*
X135620000Y-79206100D01*
%TO.C,JP8*%
X142108200Y-81298000D02*
G75*
G03*
X142808200Y-80598000I0J700000D01*
G01*
X140808200Y-80598000D02*
G75*
G03*
X141508200Y-81298000I700000J0D01*
G01*
X141508200Y-78498000D02*
G75*
G03*
X140808200Y-79198000I0J-700000D01*
G01*
X142808200Y-79198000D02*
G75*
G03*
X142108200Y-78498000I-700000J0D01*
G01*
X141508200Y-81298000D02*
X142108200Y-81298000D01*
X140808200Y-79198000D02*
X140808200Y-80598000D01*
X142108200Y-78498000D02*
X141508200Y-78498000D01*
X142808200Y-80598000D02*
X142808200Y-79198000D01*
%TO.C,JP9*%
X149359900Y-81153700D02*
G75*
G03*
X150059900Y-80453700I0J700000D01*
G01*
X148059900Y-80453700D02*
G75*
G03*
X148759900Y-81153700I700000J0D01*
G01*
X148759900Y-78353700D02*
G75*
G03*
X148059900Y-79053700I0J-700000D01*
G01*
X150059900Y-79053700D02*
G75*
G03*
X149359900Y-78353700I-700000J0D01*
G01*
X148759900Y-81153700D02*
X149359900Y-81153700D01*
X148059900Y-79053700D02*
X148059900Y-80453700D01*
X149359900Y-78353700D02*
X148759900Y-78353700D01*
X150059900Y-80453700D02*
X150059900Y-79053700D01*
%TO.C,JP10*%
X156916400Y-81356900D02*
G75*
G03*
X157616400Y-80656900I0J700000D01*
G01*
X155616400Y-80656900D02*
G75*
G03*
X156316400Y-81356900I700000J0D01*
G01*
X156316400Y-78556900D02*
G75*
G03*
X155616400Y-79256900I0J-700000D01*
G01*
X157616400Y-79256900D02*
G75*
G03*
X156916400Y-78556900I-700000J0D01*
G01*
X156316400Y-81356900D02*
X156916400Y-81356900D01*
X155616400Y-79256900D02*
X155616400Y-80656900D01*
X156916400Y-78556900D02*
X156316400Y-78556900D01*
X157616400Y-80656900D02*
X157616400Y-79256900D01*
%TO.C,JP11*%
X182710100Y-85108000D02*
G75*
G03*
X183410100Y-84408000I0J700000D01*
G01*
X181410100Y-84408000D02*
G75*
G03*
X182110100Y-85108000I700000J0D01*
G01*
X182110100Y-82308000D02*
G75*
G03*
X181410100Y-83008000I0J-700000D01*
G01*
X183410100Y-83008000D02*
G75*
G03*
X182710100Y-82308000I-700000J0D01*
G01*
X182110100Y-85108000D02*
X182710100Y-85108000D01*
X181410100Y-83008000D02*
X181410100Y-84408000D01*
X182710100Y-82308000D02*
X182110100Y-82308000D01*
X183410100Y-84408000D02*
X183410100Y-83008000D01*
%TO.C,R1*%
X118403700Y-95045264D02*
X118403700Y-94591136D01*
X119873700Y-95045264D02*
X119873700Y-94591136D01*
%TO.C,R2*%
X124407600Y-95172264D02*
X124407600Y-94718136D01*
X122937600Y-95172264D02*
X122937600Y-94718136D01*
%TO.C,R3*%
X121131000Y-108227636D02*
X121131000Y-108681764D01*
X119661000Y-108227636D02*
X119661000Y-108681764D01*
%TO.C,R4*%
X127963600Y-93143564D02*
X127963600Y-92689436D01*
X126493600Y-93143564D02*
X126493600Y-92689436D01*
%TO.C,U1*%
X121949000Y-102031800D02*
X121949000Y-98431800D01*
X121949000Y-102031800D02*
X121949000Y-104231800D01*
X130019000Y-102031800D02*
X130019000Y-99831800D01*
X130019000Y-102031800D02*
X130019000Y-104231800D01*
%TO.C,JP1*%
X151368500Y-104283000D02*
X147268500Y-104283000D01*
X147268500Y-104283000D02*
X147268500Y-106283000D01*
X147268500Y-106283000D02*
X151368500Y-106283000D01*
X151368500Y-106283000D02*
X151368500Y-104283000D01*
X150618500Y-106483000D02*
X150918500Y-106783000D01*
X150918500Y-106783000D02*
X150318500Y-106783000D01*
X150618500Y-106483000D02*
X150318500Y-106783000D01*
%TO.C,JP3*%
X121112000Y-97678700D02*
X121712000Y-97678700D01*
X120412000Y-95578700D02*
X120412000Y-96978700D01*
X121712000Y-94878700D02*
X121112000Y-94878700D01*
X122412000Y-96978700D02*
X122412000Y-95578700D01*
X121712000Y-97678700D02*
G75*
G03*
X122412000Y-96978700I0J700000D01*
G01*
X120412000Y-96978700D02*
G75*
G03*
X121112000Y-97678700I700000J0D01*
G01*
X121112000Y-94878700D02*
G75*
G03*
X120412000Y-95578700I0J-700000D01*
G01*
X122412000Y-95578700D02*
G75*
G03*
X121712000Y-94878700I-700000J0D01*
G01*
%TO.C,JP4*%
X118957100Y-106206800D02*
X120357100Y-106206800D01*
X121057100Y-105506800D02*
X121057100Y-104906800D01*
X120357100Y-104206800D02*
X118957100Y-104206800D01*
X118257100Y-104906800D02*
X118257100Y-105506800D01*
X120357100Y-106206800D02*
G75*
G03*
X121057100Y-105506800I0J700000D01*
G01*
X121057100Y-104906800D02*
G75*
G03*
X120357100Y-104206800I-700000J0D01*
G01*
X118957100Y-104206800D02*
G75*
G03*
X118257100Y-104906800I0J-700000D01*
G01*
X118257100Y-105506800D02*
G75*
G03*
X118957100Y-106206800I700000J0D01*
G01*
%TO.C,JP2*%
X115890800Y-95792300D02*
X115890800Y-97192300D01*
X116590800Y-97892300D02*
X117190800Y-97892300D01*
X117890800Y-97192300D02*
X117890800Y-95792300D01*
X117190800Y-95092300D02*
X116590800Y-95092300D01*
X115890800Y-97192300D02*
G75*
G03*
X116590800Y-97892300I700000J0D01*
G01*
X117190800Y-97892300D02*
G75*
G03*
X117890800Y-97192300I0J700000D01*
G01*
X117890800Y-95792300D02*
G75*
G03*
X117190800Y-95092300I-700000J0D01*
G01*
X116590800Y-95092300D02*
G75*
G03*
X115890800Y-95792300I0J-700000D01*
G01*
%TO.C,R5*%
X107621564Y-83843800D02*
X107167436Y-83843800D01*
X107621564Y-82373800D02*
X107167436Y-82373800D01*
%TO.C,R6*%
X106491264Y-79960800D02*
X106037136Y-79960800D01*
X106491264Y-81430800D02*
X106037136Y-81430800D01*
%TO.C,C2*%
X123886900Y-108158648D02*
X123886900Y-108681152D01*
X122416900Y-108158648D02*
X122416900Y-108681152D01*
%TO.C,JP5*%
X117162300Y-77627700D02*
X117762300Y-77627700D01*
X116462300Y-75527700D02*
X116462300Y-76927700D01*
X117762300Y-74827700D02*
X117162300Y-74827700D01*
X118462300Y-76927700D02*
X118462300Y-75527700D01*
X118462300Y-75527700D02*
G75*
G03*
X117762300Y-74827700I-700000J0D01*
G01*
X117162300Y-74827700D02*
G75*
G03*
X116462300Y-75527700I0J-700000D01*
G01*
X116462300Y-76927700D02*
G75*
G03*
X117162300Y-77627700I700000J0D01*
G01*
X117762300Y-77627700D02*
G75*
G03*
X118462300Y-76927700I0J700000D01*
G01*
%TO.C,JP13*%
X154528300Y-67086200D02*
X154528300Y-67686200D01*
X156628300Y-66386200D02*
X155228300Y-66386200D01*
X157328300Y-67686200D02*
X157328300Y-67086200D01*
X155228300Y-68386200D02*
X156628300Y-68386200D01*
X156628300Y-68386200D02*
G75*
G03*
X157328300Y-67686200I0J700000D01*
G01*
X157328300Y-67086200D02*
G75*
G03*
X156628300Y-66386200I-700000J0D01*
G01*
X155228300Y-66386200D02*
G75*
G03*
X154528300Y-67086200I0J-700000D01*
G01*
X154528300Y-67686200D02*
G75*
G03*
X155228300Y-68386200I700000J0D01*
G01*
%TO.C,JP12*%
X187016900Y-84393000D02*
X187016900Y-82993000D01*
X186316900Y-82293000D02*
X185716900Y-82293000D01*
X185016900Y-82993000D02*
X185016900Y-84393000D01*
X185716900Y-85093000D02*
X186316900Y-85093000D01*
X187016900Y-82993000D02*
G75*
G03*
X186316900Y-82293000I-700000J0D01*
G01*
X185716900Y-82293000D02*
G75*
G03*
X185016900Y-82993000I0J-700000D01*
G01*
X185016900Y-84393000D02*
G75*
G03*
X185716900Y-85093000I700000J0D01*
G01*
X186316900Y-85093000D02*
G75*
G03*
X187016900Y-84393000I0J700000D01*
G01*
%TO.C,JP6*%
D10*
X125144280Y-77144666D02*
X125858566Y-77144666D01*
X126001423Y-77097047D01*
X126096661Y-77001809D01*
X126144280Y-76858952D01*
X126144280Y-76763714D01*
X126144280Y-77620857D02*
X125144280Y-77620857D01*
X125144280Y-78001809D01*
X125191900Y-78097047D01*
X125239519Y-78144666D01*
X125334757Y-78192285D01*
X125477614Y-78192285D01*
X125572852Y-78144666D01*
X125620471Y-78097047D01*
X125668090Y-78001809D01*
X125668090Y-77620857D01*
X125144280Y-79049428D02*
X125144280Y-78858952D01*
X125191900Y-78763714D01*
X125239519Y-78716095D01*
X125382376Y-78620857D01*
X125572852Y-78573238D01*
X125953804Y-78573238D01*
X126049042Y-78620857D01*
X126096661Y-78668476D01*
X126144280Y-78763714D01*
X126144280Y-78954190D01*
X126096661Y-79049428D01*
X126049042Y-79097047D01*
X125953804Y-79144666D01*
X125715709Y-79144666D01*
X125620471Y-79097047D01*
X125572852Y-79049428D01*
X125525233Y-78954190D01*
X125525233Y-78763714D01*
X125572852Y-78668476D01*
X125620471Y-78620857D01*
X125715709Y-78573238D01*
%TO.C,JP7*%
X134237480Y-75950866D02*
X134951766Y-75950866D01*
X135094623Y-75903247D01*
X135189861Y-75808009D01*
X135237480Y-75665152D01*
X135237480Y-75569914D01*
X135237480Y-76427057D02*
X134237480Y-76427057D01*
X134237480Y-76808009D01*
X134285100Y-76903247D01*
X134332719Y-76950866D01*
X134427957Y-76998485D01*
X134570814Y-76998485D01*
X134666052Y-76950866D01*
X134713671Y-76903247D01*
X134761290Y-76808009D01*
X134761290Y-76427057D01*
X134237480Y-77331819D02*
X134237480Y-77998485D01*
X135237480Y-77569914D01*
%TO.C,JP8*%
X141374880Y-75658766D02*
X142089166Y-75658766D01*
X142232023Y-75611147D01*
X142327261Y-75515909D01*
X142374880Y-75373052D01*
X142374880Y-75277814D01*
X142374880Y-76134957D02*
X141374880Y-76134957D01*
X141374880Y-76515909D01*
X141422500Y-76611147D01*
X141470119Y-76658766D01*
X141565357Y-76706385D01*
X141708214Y-76706385D01*
X141803452Y-76658766D01*
X141851071Y-76611147D01*
X141898690Y-76515909D01*
X141898690Y-76134957D01*
X141803452Y-77277814D02*
X141755833Y-77182576D01*
X141708214Y-77134957D01*
X141612976Y-77087338D01*
X141565357Y-77087338D01*
X141470119Y-77134957D01*
X141422500Y-77182576D01*
X141374880Y-77277814D01*
X141374880Y-77468290D01*
X141422500Y-77563528D01*
X141470119Y-77611147D01*
X141565357Y-77658766D01*
X141612976Y-77658766D01*
X141708214Y-77611147D01*
X141755833Y-77563528D01*
X141803452Y-77468290D01*
X141803452Y-77277814D01*
X141851071Y-77182576D01*
X141898690Y-77134957D01*
X141993928Y-77087338D01*
X142184404Y-77087338D01*
X142279642Y-77134957D01*
X142327261Y-77182576D01*
X142374880Y-77277814D01*
X142374880Y-77468290D01*
X142327261Y-77563528D01*
X142279642Y-77611147D01*
X142184404Y-77658766D01*
X141993928Y-77658766D01*
X141898690Y-77611147D01*
X141851071Y-77563528D01*
X141803452Y-77468290D01*
%TO.C,JP9*%
X148664680Y-75557166D02*
X149378966Y-75557166D01*
X149521823Y-75509547D01*
X149617061Y-75414309D01*
X149664680Y-75271452D01*
X149664680Y-75176214D01*
X149664680Y-76033357D02*
X148664680Y-76033357D01*
X148664680Y-76414309D01*
X148712300Y-76509547D01*
X148759919Y-76557166D01*
X148855157Y-76604785D01*
X148998014Y-76604785D01*
X149093252Y-76557166D01*
X149140871Y-76509547D01*
X149188490Y-76414309D01*
X149188490Y-76033357D01*
X149664680Y-77080976D02*
X149664680Y-77271452D01*
X149617061Y-77366690D01*
X149569442Y-77414309D01*
X149426585Y-77509547D01*
X149236109Y-77557166D01*
X148855157Y-77557166D01*
X148759919Y-77509547D01*
X148712300Y-77461928D01*
X148664680Y-77366690D01*
X148664680Y-77176214D01*
X148712300Y-77080976D01*
X148759919Y-77033357D01*
X148855157Y-76985738D01*
X149093252Y-76985738D01*
X149188490Y-77033357D01*
X149236109Y-77080976D01*
X149283728Y-77176214D01*
X149283728Y-77366690D01*
X149236109Y-77461928D01*
X149188490Y-77509547D01*
X149093252Y-77557166D01*
%TO.C,JP10*%
X156513280Y-74636476D02*
X157227566Y-74636476D01*
X157370423Y-74588857D01*
X157465661Y-74493619D01*
X157513280Y-74350761D01*
X157513280Y-74255523D01*
X157513280Y-75112666D02*
X156513280Y-75112666D01*
X156513280Y-75493619D01*
X156560900Y-75588857D01*
X156608519Y-75636476D01*
X156703757Y-75684095D01*
X156846614Y-75684095D01*
X156941852Y-75636476D01*
X156989471Y-75588857D01*
X157037090Y-75493619D01*
X157037090Y-75112666D01*
X157513280Y-76636476D02*
X157513280Y-76065047D01*
X157513280Y-76350761D02*
X156513280Y-76350761D01*
X156656138Y-76255523D01*
X156751376Y-76160285D01*
X156798995Y-76065047D01*
X156513280Y-77255523D02*
X156513280Y-77350761D01*
X156560900Y-77446000D01*
X156608519Y-77493619D01*
X156703757Y-77541238D01*
X156894233Y-77588857D01*
X157132328Y-77588857D01*
X157322804Y-77541238D01*
X157418042Y-77493619D01*
X157465661Y-77446000D01*
X157513280Y-77350761D01*
X157513280Y-77255523D01*
X157465661Y-77160285D01*
X157418042Y-77112666D01*
X157322804Y-77065047D01*
X157132328Y-77017428D01*
X156894233Y-77017428D01*
X156703757Y-77065047D01*
X156608519Y-77112666D01*
X156560900Y-77160285D01*
X156513280Y-77255523D01*
%TO.C,JP11*%
X182154580Y-78992576D02*
X182868866Y-78992576D01*
X183011723Y-78944957D01*
X183106961Y-78849719D01*
X183154580Y-78706861D01*
X183154580Y-78611623D01*
X183154580Y-79468766D02*
X182154580Y-79468766D01*
X182154580Y-79849719D01*
X182202200Y-79944957D01*
X182249819Y-79992576D01*
X182345057Y-80040195D01*
X182487914Y-80040195D01*
X182583152Y-79992576D01*
X182630771Y-79944957D01*
X182678390Y-79849719D01*
X182678390Y-79468766D01*
X183154580Y-80992576D02*
X183154580Y-80421147D01*
X183154580Y-80706861D02*
X182154580Y-80706861D01*
X182297438Y-80611623D01*
X182392676Y-80516385D01*
X182440295Y-80421147D01*
X183154580Y-81944957D02*
X183154580Y-81373528D01*
X183154580Y-81659242D02*
X182154580Y-81659242D01*
X182297438Y-81564004D01*
X182392676Y-81468766D01*
X182440295Y-81373528D01*
%TO.C,R1*%
X119591080Y-97636033D02*
X119114890Y-97302700D01*
X119591080Y-97064604D02*
X118591080Y-97064604D01*
X118591080Y-97445557D01*
X118638700Y-97540795D01*
X118686319Y-97588414D01*
X118781557Y-97636033D01*
X118924414Y-97636033D01*
X119019652Y-97588414D01*
X119067271Y-97540795D01*
X119114890Y-97445557D01*
X119114890Y-97064604D01*
X119591080Y-98588414D02*
X119591080Y-98016985D01*
X119591080Y-98302700D02*
X118591080Y-98302700D01*
X118733938Y-98207461D01*
X118829176Y-98112223D01*
X118876795Y-98016985D01*
%TO.C,R2*%
X124112280Y-91806733D02*
X123636090Y-91473400D01*
X124112280Y-91235304D02*
X123112280Y-91235304D01*
X123112280Y-91616257D01*
X123159900Y-91711495D01*
X123207519Y-91759114D01*
X123302757Y-91806733D01*
X123445614Y-91806733D01*
X123540852Y-91759114D01*
X123588471Y-91711495D01*
X123636090Y-91616257D01*
X123636090Y-91235304D01*
X123207519Y-92187685D02*
X123159900Y-92235304D01*
X123112280Y-92330542D01*
X123112280Y-92568638D01*
X123159900Y-92663876D01*
X123207519Y-92711495D01*
X123302757Y-92759114D01*
X123397995Y-92759114D01*
X123540852Y-92711495D01*
X124112280Y-92140066D01*
X124112280Y-92759114D01*
%TO.C,R3*%
X119298980Y-109142233D02*
X118822790Y-108808900D01*
X119298980Y-108570804D02*
X118298980Y-108570804D01*
X118298980Y-108951757D01*
X118346600Y-109046995D01*
X118394219Y-109094614D01*
X118489457Y-109142233D01*
X118632314Y-109142233D01*
X118727552Y-109094614D01*
X118775171Y-109046995D01*
X118822790Y-108951757D01*
X118822790Y-108570804D01*
X118298980Y-109475566D02*
X118298980Y-110094614D01*
X118679933Y-109761280D01*
X118679933Y-109904138D01*
X118727552Y-109999376D01*
X118775171Y-110046995D01*
X118870409Y-110094614D01*
X119108504Y-110094614D01*
X119203742Y-110046995D01*
X119251361Y-109999376D01*
X119298980Y-109904138D01*
X119298980Y-109618423D01*
X119251361Y-109523185D01*
X119203742Y-109475566D01*
%TO.C,R4*%
X128163580Y-89723933D02*
X127687390Y-89390600D01*
X128163580Y-89152504D02*
X127163580Y-89152504D01*
X127163580Y-89533457D01*
X127211200Y-89628695D01*
X127258819Y-89676314D01*
X127354057Y-89723933D01*
X127496914Y-89723933D01*
X127592152Y-89676314D01*
X127639771Y-89628695D01*
X127687390Y-89533457D01*
X127687390Y-89152504D01*
X127496914Y-90581076D02*
X128163580Y-90581076D01*
X127115961Y-90342980D02*
X127830247Y-90104885D01*
X127830247Y-90723933D01*
%TO.C,U1*%
X131291080Y-101904895D02*
X132100604Y-101904895D01*
X132195842Y-101952514D01*
X132243461Y-102000133D01*
X132291080Y-102095371D01*
X132291080Y-102285847D01*
X132243461Y-102381085D01*
X132195842Y-102428704D01*
X132100604Y-102476323D01*
X131291080Y-102476323D01*
X132291080Y-103476323D02*
X132291080Y-102904895D01*
X132291080Y-103190609D02*
X131291080Y-103190609D01*
X131433938Y-103095371D01*
X131529176Y-103000133D01*
X131576795Y-102904895D01*
%TO.C,JP1*%
X150134533Y-102487480D02*
X150134533Y-103201766D01*
X150182152Y-103344623D01*
X150277390Y-103439861D01*
X150420247Y-103487480D01*
X150515485Y-103487480D01*
X149658342Y-103487480D02*
X149658342Y-102487480D01*
X149277390Y-102487480D01*
X149182152Y-102535100D01*
X149134533Y-102582719D01*
X149086914Y-102677957D01*
X149086914Y-102820814D01*
X149134533Y-102916052D01*
X149182152Y-102963671D01*
X149277390Y-103011290D01*
X149658342Y-103011290D01*
X148134533Y-103487480D02*
X148705961Y-103487480D01*
X148420247Y-103487480D02*
X148420247Y-102487480D01*
X148515485Y-102630338D01*
X148610723Y-102725576D01*
X148705961Y-102773195D01*
%TO.C,JP3*%
X120534180Y-92206866D02*
X121248466Y-92206866D01*
X121391323Y-92159247D01*
X121486561Y-92064009D01*
X121534180Y-91921152D01*
X121534180Y-91825914D01*
X121534180Y-92683057D02*
X120534180Y-92683057D01*
X120534180Y-93064009D01*
X120581800Y-93159247D01*
X120629419Y-93206866D01*
X120724657Y-93254485D01*
X120867514Y-93254485D01*
X120962752Y-93206866D01*
X121010371Y-93159247D01*
X121057990Y-93064009D01*
X121057990Y-92683057D01*
X120534180Y-93587819D02*
X120534180Y-94206866D01*
X120915133Y-93873533D01*
X120915133Y-94016390D01*
X120962752Y-94111628D01*
X121010371Y-94159247D01*
X121105609Y-94206866D01*
X121343704Y-94206866D01*
X121438942Y-94159247D01*
X121486561Y-94111628D01*
X121534180Y-94016390D01*
X121534180Y-93730676D01*
X121486561Y-93635438D01*
X121438942Y-93587819D01*
%TO.C,JP4*%
X120314933Y-102500180D02*
X120314933Y-103214466D01*
X120362552Y-103357323D01*
X120457790Y-103452561D01*
X120600647Y-103500180D01*
X120695885Y-103500180D01*
X119838742Y-103500180D02*
X119838742Y-102500180D01*
X119457790Y-102500180D01*
X119362552Y-102547800D01*
X119314933Y-102595419D01*
X119267314Y-102690657D01*
X119267314Y-102833514D01*
X119314933Y-102928752D01*
X119362552Y-102976371D01*
X119457790Y-103023990D01*
X119838742Y-103023990D01*
X118410171Y-102833514D02*
X118410171Y-103500180D01*
X118648266Y-102452561D02*
X118886361Y-103166847D01*
X118267314Y-103166847D01*
%TO.C,JP2*%
X114171480Y-95978766D02*
X114885766Y-95978766D01*
X115028623Y-95931147D01*
X115123861Y-95835909D01*
X115171480Y-95693052D01*
X115171480Y-95597814D01*
X115171480Y-96454957D02*
X114171480Y-96454957D01*
X114171480Y-96835909D01*
X114219100Y-96931147D01*
X114266719Y-96978766D01*
X114361957Y-97026385D01*
X114504814Y-97026385D01*
X114600052Y-96978766D01*
X114647671Y-96931147D01*
X114695290Y-96835909D01*
X114695290Y-96454957D01*
X114266719Y-97407338D02*
X114219100Y-97454957D01*
X114171480Y-97550195D01*
X114171480Y-97788290D01*
X114219100Y-97883528D01*
X114266719Y-97931147D01*
X114361957Y-97978766D01*
X114457195Y-97978766D01*
X114600052Y-97931147D01*
X115171480Y-97359719D01*
X115171480Y-97978766D01*
%TO.C,R5*%
X107468966Y-85491580D02*
X107802300Y-85015390D01*
X108040395Y-85491580D02*
X108040395Y-84491580D01*
X107659442Y-84491580D01*
X107564204Y-84539200D01*
X107516585Y-84586819D01*
X107468966Y-84682057D01*
X107468966Y-84824914D01*
X107516585Y-84920152D01*
X107564204Y-84967771D01*
X107659442Y-85015390D01*
X108040395Y-85015390D01*
X106564204Y-84491580D02*
X107040395Y-84491580D01*
X107088014Y-84967771D01*
X107040395Y-84920152D01*
X106945157Y-84872533D01*
X106707061Y-84872533D01*
X106611823Y-84920152D01*
X106564204Y-84967771D01*
X106516585Y-85063009D01*
X106516585Y-85301104D01*
X106564204Y-85396342D01*
X106611823Y-85443961D01*
X106707061Y-85491580D01*
X106945157Y-85491580D01*
X107040395Y-85443961D01*
X107088014Y-85396342D01*
%TO.C,R6*%
X106430866Y-79498180D02*
X106764200Y-79021990D01*
X107002295Y-79498180D02*
X107002295Y-78498180D01*
X106621342Y-78498180D01*
X106526104Y-78545800D01*
X106478485Y-78593419D01*
X106430866Y-78688657D01*
X106430866Y-78831514D01*
X106478485Y-78926752D01*
X106526104Y-78974371D01*
X106621342Y-79021990D01*
X107002295Y-79021990D01*
X105573723Y-78498180D02*
X105764200Y-78498180D01*
X105859438Y-78545800D01*
X105907057Y-78593419D01*
X106002295Y-78736276D01*
X106049914Y-78926752D01*
X106049914Y-79307704D01*
X106002295Y-79402942D01*
X105954676Y-79450561D01*
X105859438Y-79498180D01*
X105668961Y-79498180D01*
X105573723Y-79450561D01*
X105526104Y-79402942D01*
X105478485Y-79307704D01*
X105478485Y-79069609D01*
X105526104Y-78974371D01*
X105573723Y-78926752D01*
X105668961Y-78879133D01*
X105859438Y-78879133D01*
X105954676Y-78926752D01*
X106002295Y-78974371D01*
X106049914Y-79069609D01*
%TO.C,C2*%
X125642642Y-108405633D02*
X125690261Y-108358014D01*
X125737880Y-108215157D01*
X125737880Y-108119919D01*
X125690261Y-107977061D01*
X125595023Y-107881823D01*
X125499785Y-107834204D01*
X125309309Y-107786585D01*
X125166452Y-107786585D01*
X124975976Y-107834204D01*
X124880738Y-107881823D01*
X124785500Y-107977061D01*
X124737880Y-108119919D01*
X124737880Y-108215157D01*
X124785500Y-108358014D01*
X124833119Y-108405633D01*
X124833119Y-108786585D02*
X124785500Y-108834204D01*
X124737880Y-108929442D01*
X124737880Y-109167538D01*
X124785500Y-109262776D01*
X124833119Y-109310395D01*
X124928357Y-109358014D01*
X125023595Y-109358014D01*
X125166452Y-109310395D01*
X125737880Y-108738966D01*
X125737880Y-109358014D01*
%TO.C,JP5*%
X117219480Y-72267866D02*
X117933766Y-72267866D01*
X118076623Y-72220247D01*
X118171861Y-72125009D01*
X118219480Y-71982152D01*
X118219480Y-71886914D01*
X118219480Y-72744057D02*
X117219480Y-72744057D01*
X117219480Y-73125009D01*
X117267100Y-73220247D01*
X117314719Y-73267866D01*
X117409957Y-73315485D01*
X117552814Y-73315485D01*
X117648052Y-73267866D01*
X117695671Y-73220247D01*
X117743290Y-73125009D01*
X117743290Y-72744057D01*
X117219480Y-74220247D02*
X117219480Y-73744057D01*
X117695671Y-73696438D01*
X117648052Y-73744057D01*
X117600433Y-73839295D01*
X117600433Y-74077390D01*
X117648052Y-74172628D01*
X117695671Y-74220247D01*
X117790909Y-74267866D01*
X118029004Y-74267866D01*
X118124242Y-74220247D01*
X118171861Y-74172628D01*
X118219480Y-74077390D01*
X118219480Y-73839295D01*
X118171861Y-73744057D01*
X118124242Y-73696438D01*
%TO.C,JP13*%
X161367623Y-67067180D02*
X161367623Y-67781466D01*
X161415242Y-67924323D01*
X161510480Y-68019561D01*
X161653338Y-68067180D01*
X161748576Y-68067180D01*
X160891433Y-68067180D02*
X160891433Y-67067180D01*
X160510480Y-67067180D01*
X160415242Y-67114800D01*
X160367623Y-67162419D01*
X160320004Y-67257657D01*
X160320004Y-67400514D01*
X160367623Y-67495752D01*
X160415242Y-67543371D01*
X160510480Y-67590990D01*
X160891433Y-67590990D01*
X159367623Y-68067180D02*
X159939052Y-68067180D01*
X159653338Y-68067180D02*
X159653338Y-67067180D01*
X159748576Y-67210038D01*
X159843814Y-67305276D01*
X159939052Y-67352895D01*
X159034290Y-67067180D02*
X158415242Y-67067180D01*
X158748576Y-67448133D01*
X158605719Y-67448133D01*
X158510480Y-67495752D01*
X158462861Y-67543371D01*
X158415242Y-67638609D01*
X158415242Y-67876704D01*
X158462861Y-67971942D01*
X158510480Y-68019561D01*
X158605719Y-68067180D01*
X158891433Y-68067180D01*
X158986671Y-68019561D01*
X159034290Y-67971942D01*
%TO.C,JP12*%
X187269280Y-82383476D02*
X187983566Y-82383476D01*
X188126423Y-82335857D01*
X188221661Y-82240619D01*
X188269280Y-82097761D01*
X188269280Y-82002523D01*
X188269280Y-82859666D02*
X187269280Y-82859666D01*
X187269280Y-83240619D01*
X187316900Y-83335857D01*
X187364519Y-83383476D01*
X187459757Y-83431095D01*
X187602614Y-83431095D01*
X187697852Y-83383476D01*
X187745471Y-83335857D01*
X187793090Y-83240619D01*
X187793090Y-82859666D01*
X188269280Y-84383476D02*
X188269280Y-83812047D01*
X188269280Y-84097761D02*
X187269280Y-84097761D01*
X187412138Y-84002523D01*
X187507376Y-83907285D01*
X187554995Y-83812047D01*
X187364519Y-84764428D02*
X187316900Y-84812047D01*
X187269280Y-84907285D01*
X187269280Y-85145380D01*
X187316900Y-85240619D01*
X187364519Y-85288238D01*
X187459757Y-85335857D01*
X187554995Y-85335857D01*
X187697852Y-85288238D01*
X188269280Y-84716809D01*
X188269280Y-85335857D01*
%TD*%
M02*
