%TF.GenerationSoftware,KiCad,Pcbnew,(5.1.10)-1*%
%TF.CreationDate,2022-02-28T00:28:23+01:00*%
%TF.ProjectId,E-nose,452d6e6f-7365-42e6-9b69-6361645f7063,rev?*%
%TF.SameCoordinates,Original*%
%TF.FileFunction,Soldermask,Bot*%
%TF.FilePolarity,Negative*%
%FSLAX46Y46*%
G04 Gerber Fmt 4.6, Leading zero omitted, Abs format (unit mm)*
G04 Created by KiCad (PCBNEW (5.1.10)-1) date 2022-02-28 00:28:23*
%MOMM*%
%LPD*%
G01*
G04 APERTURE LIST*
%ADD10C,0.100000*%
%ADD11O,1.727200X1.727200*%
%ADD12C,3.200000*%
%ADD13R,1.000000X1.500000*%
%ADD14R,1.600000X1.600000*%
%ADD15C,1.600000*%
%ADD16R,1.700000X1.700000*%
%ADD17O,1.700000X1.700000*%
%ADD18O,1.600000X1.600000*%
G04 APERTURE END LIST*
D10*
%TO.C,JP6*%
G36*
X126974502Y-77251800D02*
G01*
X126974502Y-77227266D01*
X126979312Y-77178435D01*
X126988884Y-77130310D01*
X127003128Y-77083355D01*
X127021905Y-77038022D01*
X127045036Y-76994749D01*
X127072296Y-76953950D01*
X127103424Y-76916021D01*
X127138121Y-76881324D01*
X127176050Y-76850196D01*
X127216849Y-76822936D01*
X127260122Y-76799805D01*
X127305455Y-76781028D01*
X127352410Y-76766784D01*
X127400535Y-76757212D01*
X127449366Y-76752402D01*
X127473900Y-76752402D01*
X127473900Y-76751800D01*
X127973900Y-76751800D01*
X127973900Y-76752402D01*
X127998434Y-76752402D01*
X128047265Y-76757212D01*
X128095390Y-76766784D01*
X128142345Y-76781028D01*
X128187678Y-76799805D01*
X128230951Y-76822936D01*
X128271750Y-76850196D01*
X128309679Y-76881324D01*
X128344376Y-76916021D01*
X128375504Y-76953950D01*
X128402764Y-76994749D01*
X128425895Y-77038022D01*
X128444672Y-77083355D01*
X128458916Y-77130310D01*
X128468488Y-77178435D01*
X128473298Y-77227266D01*
X128473298Y-77251800D01*
X128473900Y-77251800D01*
X128473900Y-77751800D01*
X126973900Y-77751800D01*
X126973900Y-77251800D01*
X126974502Y-77251800D01*
G37*
G36*
X128473900Y-78051800D02*
G01*
X128473900Y-78551800D01*
X128473298Y-78551800D01*
X128473298Y-78576334D01*
X128468488Y-78625165D01*
X128458916Y-78673290D01*
X128444672Y-78720245D01*
X128425895Y-78765578D01*
X128402764Y-78808851D01*
X128375504Y-78849650D01*
X128344376Y-78887579D01*
X128309679Y-78922276D01*
X128271750Y-78953404D01*
X128230951Y-78980664D01*
X128187678Y-79003795D01*
X128142345Y-79022572D01*
X128095390Y-79036816D01*
X128047265Y-79046388D01*
X127998434Y-79051198D01*
X127973900Y-79051198D01*
X127973900Y-79051800D01*
X127473900Y-79051800D01*
X127473900Y-79051198D01*
X127449366Y-79051198D01*
X127400535Y-79046388D01*
X127352410Y-79036816D01*
X127305455Y-79022572D01*
X127260122Y-79003795D01*
X127216849Y-78980664D01*
X127176050Y-78953404D01*
X127138121Y-78922276D01*
X127103424Y-78887579D01*
X127072296Y-78849650D01*
X127045036Y-78808851D01*
X127021905Y-78765578D01*
X127003128Y-78720245D01*
X126988884Y-78673290D01*
X126979312Y-78625165D01*
X126974502Y-78576334D01*
X126974502Y-78551800D01*
X126973900Y-78551800D01*
X126973900Y-78051800D01*
X128473900Y-78051800D01*
G37*
%TD*%
%TO.C,JP7*%
G36*
X133870602Y-79256100D02*
G01*
X133870602Y-79231566D01*
X133875412Y-79182735D01*
X133884984Y-79134610D01*
X133899228Y-79087655D01*
X133918005Y-79042322D01*
X133941136Y-78999049D01*
X133968396Y-78958250D01*
X133999524Y-78920321D01*
X134034221Y-78885624D01*
X134072150Y-78854496D01*
X134112949Y-78827236D01*
X134156222Y-78804105D01*
X134201555Y-78785328D01*
X134248510Y-78771084D01*
X134296635Y-78761512D01*
X134345466Y-78756702D01*
X134370000Y-78756702D01*
X134370000Y-78756100D01*
X134870000Y-78756100D01*
X134870000Y-78756702D01*
X134894534Y-78756702D01*
X134943365Y-78761512D01*
X134991490Y-78771084D01*
X135038445Y-78785328D01*
X135083778Y-78804105D01*
X135127051Y-78827236D01*
X135167850Y-78854496D01*
X135205779Y-78885624D01*
X135240476Y-78920321D01*
X135271604Y-78958250D01*
X135298864Y-78999049D01*
X135321995Y-79042322D01*
X135340772Y-79087655D01*
X135355016Y-79134610D01*
X135364588Y-79182735D01*
X135369398Y-79231566D01*
X135369398Y-79256100D01*
X135370000Y-79256100D01*
X135370000Y-79756100D01*
X133870000Y-79756100D01*
X133870000Y-79256100D01*
X133870602Y-79256100D01*
G37*
G36*
X135370000Y-80056100D02*
G01*
X135370000Y-80556100D01*
X135369398Y-80556100D01*
X135369398Y-80580634D01*
X135364588Y-80629465D01*
X135355016Y-80677590D01*
X135340772Y-80724545D01*
X135321995Y-80769878D01*
X135298864Y-80813151D01*
X135271604Y-80853950D01*
X135240476Y-80891879D01*
X135205779Y-80926576D01*
X135167850Y-80957704D01*
X135127051Y-80984964D01*
X135083778Y-81008095D01*
X135038445Y-81026872D01*
X134991490Y-81041116D01*
X134943365Y-81050688D01*
X134894534Y-81055498D01*
X134870000Y-81055498D01*
X134870000Y-81056100D01*
X134370000Y-81056100D01*
X134370000Y-81055498D01*
X134345466Y-81055498D01*
X134296635Y-81050688D01*
X134248510Y-81041116D01*
X134201555Y-81026872D01*
X134156222Y-81008095D01*
X134112949Y-80984964D01*
X134072150Y-80957704D01*
X134034221Y-80926576D01*
X133999524Y-80891879D01*
X133968396Y-80853950D01*
X133941136Y-80813151D01*
X133918005Y-80769878D01*
X133899228Y-80724545D01*
X133884984Y-80677590D01*
X133875412Y-80629465D01*
X133870602Y-80580634D01*
X133870602Y-80556100D01*
X133870000Y-80556100D01*
X133870000Y-80056100D01*
X135370000Y-80056100D01*
G37*
%TD*%
%TO.C,JP8*%
G36*
X141058802Y-79248000D02*
G01*
X141058802Y-79223466D01*
X141063612Y-79174635D01*
X141073184Y-79126510D01*
X141087428Y-79079555D01*
X141106205Y-79034222D01*
X141129336Y-78990949D01*
X141156596Y-78950150D01*
X141187724Y-78912221D01*
X141222421Y-78877524D01*
X141260350Y-78846396D01*
X141301149Y-78819136D01*
X141344422Y-78796005D01*
X141389755Y-78777228D01*
X141436710Y-78762984D01*
X141484835Y-78753412D01*
X141533666Y-78748602D01*
X141558200Y-78748602D01*
X141558200Y-78748000D01*
X142058200Y-78748000D01*
X142058200Y-78748602D01*
X142082734Y-78748602D01*
X142131565Y-78753412D01*
X142179690Y-78762984D01*
X142226645Y-78777228D01*
X142271978Y-78796005D01*
X142315251Y-78819136D01*
X142356050Y-78846396D01*
X142393979Y-78877524D01*
X142428676Y-78912221D01*
X142459804Y-78950150D01*
X142487064Y-78990949D01*
X142510195Y-79034222D01*
X142528972Y-79079555D01*
X142543216Y-79126510D01*
X142552788Y-79174635D01*
X142557598Y-79223466D01*
X142557598Y-79248000D01*
X142558200Y-79248000D01*
X142558200Y-79748000D01*
X141058200Y-79748000D01*
X141058200Y-79248000D01*
X141058802Y-79248000D01*
G37*
G36*
X142558200Y-80048000D02*
G01*
X142558200Y-80548000D01*
X142557598Y-80548000D01*
X142557598Y-80572534D01*
X142552788Y-80621365D01*
X142543216Y-80669490D01*
X142528972Y-80716445D01*
X142510195Y-80761778D01*
X142487064Y-80805051D01*
X142459804Y-80845850D01*
X142428676Y-80883779D01*
X142393979Y-80918476D01*
X142356050Y-80949604D01*
X142315251Y-80976864D01*
X142271978Y-80999995D01*
X142226645Y-81018772D01*
X142179690Y-81033016D01*
X142131565Y-81042588D01*
X142082734Y-81047398D01*
X142058200Y-81047398D01*
X142058200Y-81048000D01*
X141558200Y-81048000D01*
X141558200Y-81047398D01*
X141533666Y-81047398D01*
X141484835Y-81042588D01*
X141436710Y-81033016D01*
X141389755Y-81018772D01*
X141344422Y-80999995D01*
X141301149Y-80976864D01*
X141260350Y-80949604D01*
X141222421Y-80918476D01*
X141187724Y-80883779D01*
X141156596Y-80845850D01*
X141129336Y-80805051D01*
X141106205Y-80761778D01*
X141087428Y-80716445D01*
X141073184Y-80669490D01*
X141063612Y-80621365D01*
X141058802Y-80572534D01*
X141058802Y-80548000D01*
X141058200Y-80548000D01*
X141058200Y-80048000D01*
X142558200Y-80048000D01*
G37*
%TD*%
%TO.C,JP9*%
G36*
X148310502Y-79103700D02*
G01*
X148310502Y-79079166D01*
X148315312Y-79030335D01*
X148324884Y-78982210D01*
X148339128Y-78935255D01*
X148357905Y-78889922D01*
X148381036Y-78846649D01*
X148408296Y-78805850D01*
X148439424Y-78767921D01*
X148474121Y-78733224D01*
X148512050Y-78702096D01*
X148552849Y-78674836D01*
X148596122Y-78651705D01*
X148641455Y-78632928D01*
X148688410Y-78618684D01*
X148736535Y-78609112D01*
X148785366Y-78604302D01*
X148809900Y-78604302D01*
X148809900Y-78603700D01*
X149309900Y-78603700D01*
X149309900Y-78604302D01*
X149334434Y-78604302D01*
X149383265Y-78609112D01*
X149431390Y-78618684D01*
X149478345Y-78632928D01*
X149523678Y-78651705D01*
X149566951Y-78674836D01*
X149607750Y-78702096D01*
X149645679Y-78733224D01*
X149680376Y-78767921D01*
X149711504Y-78805850D01*
X149738764Y-78846649D01*
X149761895Y-78889922D01*
X149780672Y-78935255D01*
X149794916Y-78982210D01*
X149804488Y-79030335D01*
X149809298Y-79079166D01*
X149809298Y-79103700D01*
X149809900Y-79103700D01*
X149809900Y-79603700D01*
X148309900Y-79603700D01*
X148309900Y-79103700D01*
X148310502Y-79103700D01*
G37*
G36*
X149809900Y-79903700D02*
G01*
X149809900Y-80403700D01*
X149809298Y-80403700D01*
X149809298Y-80428234D01*
X149804488Y-80477065D01*
X149794916Y-80525190D01*
X149780672Y-80572145D01*
X149761895Y-80617478D01*
X149738764Y-80660751D01*
X149711504Y-80701550D01*
X149680376Y-80739479D01*
X149645679Y-80774176D01*
X149607750Y-80805304D01*
X149566951Y-80832564D01*
X149523678Y-80855695D01*
X149478345Y-80874472D01*
X149431390Y-80888716D01*
X149383265Y-80898288D01*
X149334434Y-80903098D01*
X149309900Y-80903098D01*
X149309900Y-80903700D01*
X148809900Y-80903700D01*
X148809900Y-80903098D01*
X148785366Y-80903098D01*
X148736535Y-80898288D01*
X148688410Y-80888716D01*
X148641455Y-80874472D01*
X148596122Y-80855695D01*
X148552849Y-80832564D01*
X148512050Y-80805304D01*
X148474121Y-80774176D01*
X148439424Y-80739479D01*
X148408296Y-80701550D01*
X148381036Y-80660751D01*
X148357905Y-80617478D01*
X148339128Y-80572145D01*
X148324884Y-80525190D01*
X148315312Y-80477065D01*
X148310502Y-80428234D01*
X148310502Y-80403700D01*
X148309900Y-80403700D01*
X148309900Y-79903700D01*
X149809900Y-79903700D01*
G37*
%TD*%
%TO.C,JP10*%
G36*
X155867002Y-79306900D02*
G01*
X155867002Y-79282366D01*
X155871812Y-79233535D01*
X155881384Y-79185410D01*
X155895628Y-79138455D01*
X155914405Y-79093122D01*
X155937536Y-79049849D01*
X155964796Y-79009050D01*
X155995924Y-78971121D01*
X156030621Y-78936424D01*
X156068550Y-78905296D01*
X156109349Y-78878036D01*
X156152622Y-78854905D01*
X156197955Y-78836128D01*
X156244910Y-78821884D01*
X156293035Y-78812312D01*
X156341866Y-78807502D01*
X156366400Y-78807502D01*
X156366400Y-78806900D01*
X156866400Y-78806900D01*
X156866400Y-78807502D01*
X156890934Y-78807502D01*
X156939765Y-78812312D01*
X156987890Y-78821884D01*
X157034845Y-78836128D01*
X157080178Y-78854905D01*
X157123451Y-78878036D01*
X157164250Y-78905296D01*
X157202179Y-78936424D01*
X157236876Y-78971121D01*
X157268004Y-79009050D01*
X157295264Y-79049849D01*
X157318395Y-79093122D01*
X157337172Y-79138455D01*
X157351416Y-79185410D01*
X157360988Y-79233535D01*
X157365798Y-79282366D01*
X157365798Y-79306900D01*
X157366400Y-79306900D01*
X157366400Y-79806900D01*
X155866400Y-79806900D01*
X155866400Y-79306900D01*
X155867002Y-79306900D01*
G37*
G36*
X157366400Y-80106900D02*
G01*
X157366400Y-80606900D01*
X157365798Y-80606900D01*
X157365798Y-80631434D01*
X157360988Y-80680265D01*
X157351416Y-80728390D01*
X157337172Y-80775345D01*
X157318395Y-80820678D01*
X157295264Y-80863951D01*
X157268004Y-80904750D01*
X157236876Y-80942679D01*
X157202179Y-80977376D01*
X157164250Y-81008504D01*
X157123451Y-81035764D01*
X157080178Y-81058895D01*
X157034845Y-81077672D01*
X156987890Y-81091916D01*
X156939765Y-81101488D01*
X156890934Y-81106298D01*
X156866400Y-81106298D01*
X156866400Y-81106900D01*
X156366400Y-81106900D01*
X156366400Y-81106298D01*
X156341866Y-81106298D01*
X156293035Y-81101488D01*
X156244910Y-81091916D01*
X156197955Y-81077672D01*
X156152622Y-81058895D01*
X156109349Y-81035764D01*
X156068550Y-81008504D01*
X156030621Y-80977376D01*
X155995924Y-80942679D01*
X155964796Y-80904750D01*
X155937536Y-80863951D01*
X155914405Y-80820678D01*
X155895628Y-80775345D01*
X155881384Y-80728390D01*
X155871812Y-80680265D01*
X155867002Y-80631434D01*
X155867002Y-80606900D01*
X155866400Y-80606900D01*
X155866400Y-80106900D01*
X157366400Y-80106900D01*
G37*
%TD*%
%TO.C,JP11*%
G36*
X181660702Y-83058000D02*
G01*
X181660702Y-83033466D01*
X181665512Y-82984635D01*
X181675084Y-82936510D01*
X181689328Y-82889555D01*
X181708105Y-82844222D01*
X181731236Y-82800949D01*
X181758496Y-82760150D01*
X181789624Y-82722221D01*
X181824321Y-82687524D01*
X181862250Y-82656396D01*
X181903049Y-82629136D01*
X181946322Y-82606005D01*
X181991655Y-82587228D01*
X182038610Y-82572984D01*
X182086735Y-82563412D01*
X182135566Y-82558602D01*
X182160100Y-82558602D01*
X182160100Y-82558000D01*
X182660100Y-82558000D01*
X182660100Y-82558602D01*
X182684634Y-82558602D01*
X182733465Y-82563412D01*
X182781590Y-82572984D01*
X182828545Y-82587228D01*
X182873878Y-82606005D01*
X182917151Y-82629136D01*
X182957950Y-82656396D01*
X182995879Y-82687524D01*
X183030576Y-82722221D01*
X183061704Y-82760150D01*
X183088964Y-82800949D01*
X183112095Y-82844222D01*
X183130872Y-82889555D01*
X183145116Y-82936510D01*
X183154688Y-82984635D01*
X183159498Y-83033466D01*
X183159498Y-83058000D01*
X183160100Y-83058000D01*
X183160100Y-83558000D01*
X181660100Y-83558000D01*
X181660100Y-83058000D01*
X181660702Y-83058000D01*
G37*
G36*
X183160100Y-83858000D02*
G01*
X183160100Y-84358000D01*
X183159498Y-84358000D01*
X183159498Y-84382534D01*
X183154688Y-84431365D01*
X183145116Y-84479490D01*
X183130872Y-84526445D01*
X183112095Y-84571778D01*
X183088964Y-84615051D01*
X183061704Y-84655850D01*
X183030576Y-84693779D01*
X182995879Y-84728476D01*
X182957950Y-84759604D01*
X182917151Y-84786864D01*
X182873878Y-84809995D01*
X182828545Y-84828772D01*
X182781590Y-84843016D01*
X182733465Y-84852588D01*
X182684634Y-84857398D01*
X182660100Y-84857398D01*
X182660100Y-84858000D01*
X182160100Y-84858000D01*
X182160100Y-84857398D01*
X182135566Y-84857398D01*
X182086735Y-84852588D01*
X182038610Y-84843016D01*
X181991655Y-84828772D01*
X181946322Y-84809995D01*
X181903049Y-84786864D01*
X181862250Y-84759604D01*
X181824321Y-84728476D01*
X181789624Y-84693779D01*
X181758496Y-84655850D01*
X181731236Y-84615051D01*
X181708105Y-84571778D01*
X181689328Y-84526445D01*
X181675084Y-84479490D01*
X181665512Y-84431365D01*
X181660702Y-84382534D01*
X181660702Y-84358000D01*
X181660100Y-84358000D01*
X181660100Y-83858000D01*
X183160100Y-83858000D01*
G37*
%TD*%
D11*
%TO.C,XA1*%
X166179500Y-85140800D03*
X168719500Y-85140800D03*
X168719500Y-82600800D03*
X166179500Y-82600800D03*
X168719500Y-80060800D03*
X153352500Y-108000800D03*
X148272500Y-108000800D03*
X145732500Y-108000800D03*
X143192500Y-108000800D03*
X140652500Y-108000800D03*
X138112500Y-108000800D03*
X135572500Y-108000800D03*
X133032500Y-108000800D03*
X188912500Y-59740800D03*
X186372500Y-59740800D03*
X183832500Y-59740800D03*
X181292500Y-59740800D03*
X178752500Y-59740800D03*
X176212500Y-59740800D03*
X173672500Y-59740800D03*
X171132500Y-59740800D03*
X166052500Y-59740800D03*
X163512500Y-59740800D03*
X160972500Y-59740800D03*
X158432500Y-59740800D03*
X155892500Y-59740800D03*
X153352500Y-59740800D03*
X150812500Y-59740800D03*
X148272500Y-59740800D03*
X128968500Y-59740800D03*
X144208500Y-59740800D03*
X141668500Y-59740800D03*
X139128500Y-59740800D03*
D12*
X168592500Y-102920800D03*
X168592500Y-74980800D03*
X192722500Y-59740800D03*
X117792500Y-59740800D03*
X199072500Y-108000800D03*
X116522500Y-108000800D03*
D11*
X121348500Y-59740800D03*
X123888500Y-59740800D03*
X126428500Y-59740800D03*
X131508500Y-59740800D03*
X134048500Y-59740800D03*
X136588500Y-59740800D03*
X130492500Y-108000800D03*
X155892500Y-108000800D03*
X158432500Y-108000800D03*
X160972500Y-108000800D03*
X163512500Y-108000800D03*
X166052500Y-108000800D03*
X168592500Y-108000800D03*
X171132500Y-108000800D03*
X176212500Y-108000800D03*
X178752500Y-108000800D03*
X181292500Y-108000800D03*
X183832500Y-108000800D03*
X186372500Y-108000800D03*
X188912500Y-108000800D03*
X191452500Y-108000800D03*
X193992500Y-108000800D03*
X196532500Y-59740800D03*
X199072500Y-59740800D03*
X196532500Y-62280800D03*
X199072500Y-62280800D03*
X196532500Y-64820800D03*
X199072500Y-64820800D03*
X196532500Y-67360800D03*
X199072500Y-67360800D03*
X196532500Y-69900800D03*
X199072500Y-69900800D03*
X196532500Y-72440800D03*
X199072500Y-72440800D03*
X196532500Y-74980800D03*
X199072500Y-74980800D03*
X196532500Y-77520800D03*
X199072500Y-77520800D03*
X196532500Y-80060800D03*
X199072500Y-80060800D03*
X196532500Y-82600800D03*
X199072500Y-82600800D03*
X196532500Y-85140800D03*
X199072500Y-85140800D03*
X196532500Y-87680800D03*
X199072500Y-87680800D03*
X196532500Y-90220800D03*
X199072500Y-90220800D03*
X196532500Y-92760800D03*
X199072500Y-92760800D03*
X196532500Y-95300800D03*
X199072500Y-95300800D03*
X196532500Y-97840800D03*
X199072500Y-97840800D03*
X196532500Y-100380800D03*
X199072500Y-100380800D03*
X196532500Y-102920800D03*
X199072500Y-102920800D03*
X166179500Y-80060800D03*
%TD*%
%TO.C,R1*%
G36*
G01*
X119588701Y-96418200D02*
X118688699Y-96418200D01*
G75*
G02*
X118438700Y-96168201I0J249999D01*
G01*
X118438700Y-95468199D01*
G75*
G02*
X118688699Y-95218200I249999J0D01*
G01*
X119588701Y-95218200D01*
G75*
G02*
X119838700Y-95468199I0J-249999D01*
G01*
X119838700Y-96168201D01*
G75*
G02*
X119588701Y-96418200I-249999J0D01*
G01*
G37*
G36*
G01*
X119588701Y-94418200D02*
X118688699Y-94418200D01*
G75*
G02*
X118438700Y-94168201I0J249999D01*
G01*
X118438700Y-93468199D01*
G75*
G02*
X118688699Y-93218200I249999J0D01*
G01*
X119588701Y-93218200D01*
G75*
G02*
X119838700Y-93468199I0J-249999D01*
G01*
X119838700Y-94168201D01*
G75*
G02*
X119588701Y-94418200I-249999J0D01*
G01*
G37*
%TD*%
%TO.C,R2*%
G36*
G01*
X124122601Y-94545200D02*
X123222599Y-94545200D01*
G75*
G02*
X122972600Y-94295201I0J249999D01*
G01*
X122972600Y-93595199D01*
G75*
G02*
X123222599Y-93345200I249999J0D01*
G01*
X124122601Y-93345200D01*
G75*
G02*
X124372600Y-93595199I0J-249999D01*
G01*
X124372600Y-94295201D01*
G75*
G02*
X124122601Y-94545200I-249999J0D01*
G01*
G37*
G36*
G01*
X124122601Y-96545200D02*
X123222599Y-96545200D01*
G75*
G02*
X122972600Y-96295201I0J249999D01*
G01*
X122972600Y-95595199D01*
G75*
G02*
X123222599Y-95345200I249999J0D01*
G01*
X124122601Y-95345200D01*
G75*
G02*
X124372600Y-95595199I0J-249999D01*
G01*
X124372600Y-96295201D01*
G75*
G02*
X124122601Y-96545200I-249999J0D01*
G01*
G37*
%TD*%
%TO.C,R3*%
G36*
G01*
X119945999Y-106854700D02*
X120846001Y-106854700D01*
G75*
G02*
X121096000Y-107104699I0J-249999D01*
G01*
X121096000Y-107804701D01*
G75*
G02*
X120846001Y-108054700I-249999J0D01*
G01*
X119945999Y-108054700D01*
G75*
G02*
X119696000Y-107804701I0J249999D01*
G01*
X119696000Y-107104699D01*
G75*
G02*
X119945999Y-106854700I249999J0D01*
G01*
G37*
G36*
G01*
X119945999Y-108854700D02*
X120846001Y-108854700D01*
G75*
G02*
X121096000Y-109104699I0J-249999D01*
G01*
X121096000Y-109804701D01*
G75*
G02*
X120846001Y-110054700I-249999J0D01*
G01*
X119945999Y-110054700D01*
G75*
G02*
X119696000Y-109804701I0J249999D01*
G01*
X119696000Y-109104699D01*
G75*
G02*
X119945999Y-108854700I249999J0D01*
G01*
G37*
%TD*%
%TO.C,R4*%
G36*
G01*
X127678601Y-92516500D02*
X126778599Y-92516500D01*
G75*
G02*
X126528600Y-92266501I0J249999D01*
G01*
X126528600Y-91566499D01*
G75*
G02*
X126778599Y-91316500I249999J0D01*
G01*
X127678601Y-91316500D01*
G75*
G02*
X127928600Y-91566499I0J-249999D01*
G01*
X127928600Y-92266501D01*
G75*
G02*
X127678601Y-92516500I-249999J0D01*
G01*
G37*
G36*
G01*
X127678601Y-94516500D02*
X126778599Y-94516500D01*
G75*
G02*
X126528600Y-94266501I0J249999D01*
G01*
X126528600Y-93566499D01*
G75*
G02*
X126778599Y-93316500I249999J0D01*
G01*
X127678601Y-93316500D01*
G75*
G02*
X127928600Y-93566499I0J-249999D01*
G01*
X127928600Y-94266501D01*
G75*
G02*
X127678601Y-94516500I-249999J0D01*
G01*
G37*
%TD*%
%TO.C,U1*%
G36*
G01*
X122309000Y-98431800D02*
X122509000Y-98431800D01*
G75*
G02*
X122609000Y-98531800I0J-100000D01*
G01*
X122609000Y-99806800D01*
G75*
G02*
X122509000Y-99906800I-100000J0D01*
G01*
X122309000Y-99906800D01*
G75*
G02*
X122209000Y-99806800I0J100000D01*
G01*
X122209000Y-98531800D01*
G75*
G02*
X122309000Y-98431800I100000J0D01*
G01*
G37*
G36*
G01*
X122959000Y-98431800D02*
X123159000Y-98431800D01*
G75*
G02*
X123259000Y-98531800I0J-100000D01*
G01*
X123259000Y-99806800D01*
G75*
G02*
X123159000Y-99906800I-100000J0D01*
G01*
X122959000Y-99906800D01*
G75*
G02*
X122859000Y-99806800I0J100000D01*
G01*
X122859000Y-98531800D01*
G75*
G02*
X122959000Y-98431800I100000J0D01*
G01*
G37*
G36*
G01*
X123609000Y-98431800D02*
X123809000Y-98431800D01*
G75*
G02*
X123909000Y-98531800I0J-100000D01*
G01*
X123909000Y-99806800D01*
G75*
G02*
X123809000Y-99906800I-100000J0D01*
G01*
X123609000Y-99906800D01*
G75*
G02*
X123509000Y-99806800I0J100000D01*
G01*
X123509000Y-98531800D01*
G75*
G02*
X123609000Y-98431800I100000J0D01*
G01*
G37*
G36*
G01*
X124259000Y-98431800D02*
X124459000Y-98431800D01*
G75*
G02*
X124559000Y-98531800I0J-100000D01*
G01*
X124559000Y-99806800D01*
G75*
G02*
X124459000Y-99906800I-100000J0D01*
G01*
X124259000Y-99906800D01*
G75*
G02*
X124159000Y-99806800I0J100000D01*
G01*
X124159000Y-98531800D01*
G75*
G02*
X124259000Y-98431800I100000J0D01*
G01*
G37*
G36*
G01*
X124909000Y-98431800D02*
X125109000Y-98431800D01*
G75*
G02*
X125209000Y-98531800I0J-100000D01*
G01*
X125209000Y-99806800D01*
G75*
G02*
X125109000Y-99906800I-100000J0D01*
G01*
X124909000Y-99906800D01*
G75*
G02*
X124809000Y-99806800I0J100000D01*
G01*
X124809000Y-98531800D01*
G75*
G02*
X124909000Y-98431800I100000J0D01*
G01*
G37*
G36*
G01*
X125559000Y-98431800D02*
X125759000Y-98431800D01*
G75*
G02*
X125859000Y-98531800I0J-100000D01*
G01*
X125859000Y-99806800D01*
G75*
G02*
X125759000Y-99906800I-100000J0D01*
G01*
X125559000Y-99906800D01*
G75*
G02*
X125459000Y-99806800I0J100000D01*
G01*
X125459000Y-98531800D01*
G75*
G02*
X125559000Y-98431800I100000J0D01*
G01*
G37*
G36*
G01*
X126209000Y-98431800D02*
X126409000Y-98431800D01*
G75*
G02*
X126509000Y-98531800I0J-100000D01*
G01*
X126509000Y-99806800D01*
G75*
G02*
X126409000Y-99906800I-100000J0D01*
G01*
X126209000Y-99906800D01*
G75*
G02*
X126109000Y-99806800I0J100000D01*
G01*
X126109000Y-98531800D01*
G75*
G02*
X126209000Y-98431800I100000J0D01*
G01*
G37*
G36*
G01*
X126859000Y-98431800D02*
X127059000Y-98431800D01*
G75*
G02*
X127159000Y-98531800I0J-100000D01*
G01*
X127159000Y-99806800D01*
G75*
G02*
X127059000Y-99906800I-100000J0D01*
G01*
X126859000Y-99906800D01*
G75*
G02*
X126759000Y-99806800I0J100000D01*
G01*
X126759000Y-98531800D01*
G75*
G02*
X126859000Y-98431800I100000J0D01*
G01*
G37*
G36*
G01*
X127509000Y-98431800D02*
X127709000Y-98431800D01*
G75*
G02*
X127809000Y-98531800I0J-100000D01*
G01*
X127809000Y-99806800D01*
G75*
G02*
X127709000Y-99906800I-100000J0D01*
G01*
X127509000Y-99906800D01*
G75*
G02*
X127409000Y-99806800I0J100000D01*
G01*
X127409000Y-98531800D01*
G75*
G02*
X127509000Y-98431800I100000J0D01*
G01*
G37*
G36*
G01*
X128159000Y-98431800D02*
X128359000Y-98431800D01*
G75*
G02*
X128459000Y-98531800I0J-100000D01*
G01*
X128459000Y-99806800D01*
G75*
G02*
X128359000Y-99906800I-100000J0D01*
G01*
X128159000Y-99906800D01*
G75*
G02*
X128059000Y-99806800I0J100000D01*
G01*
X128059000Y-98531800D01*
G75*
G02*
X128159000Y-98431800I100000J0D01*
G01*
G37*
G36*
G01*
X128809000Y-98431800D02*
X129009000Y-98431800D01*
G75*
G02*
X129109000Y-98531800I0J-100000D01*
G01*
X129109000Y-99806800D01*
G75*
G02*
X129009000Y-99906800I-100000J0D01*
G01*
X128809000Y-99906800D01*
G75*
G02*
X128709000Y-99806800I0J100000D01*
G01*
X128709000Y-98531800D01*
G75*
G02*
X128809000Y-98431800I100000J0D01*
G01*
G37*
G36*
G01*
X129459000Y-98431800D02*
X129659000Y-98431800D01*
G75*
G02*
X129759000Y-98531800I0J-100000D01*
G01*
X129759000Y-99806800D01*
G75*
G02*
X129659000Y-99906800I-100000J0D01*
G01*
X129459000Y-99906800D01*
G75*
G02*
X129359000Y-99806800I0J100000D01*
G01*
X129359000Y-98531800D01*
G75*
G02*
X129459000Y-98431800I100000J0D01*
G01*
G37*
G36*
G01*
X129459000Y-104156800D02*
X129659000Y-104156800D01*
G75*
G02*
X129759000Y-104256800I0J-100000D01*
G01*
X129759000Y-105531800D01*
G75*
G02*
X129659000Y-105631800I-100000J0D01*
G01*
X129459000Y-105631800D01*
G75*
G02*
X129359000Y-105531800I0J100000D01*
G01*
X129359000Y-104256800D01*
G75*
G02*
X129459000Y-104156800I100000J0D01*
G01*
G37*
G36*
G01*
X128809000Y-104156800D02*
X129009000Y-104156800D01*
G75*
G02*
X129109000Y-104256800I0J-100000D01*
G01*
X129109000Y-105531800D01*
G75*
G02*
X129009000Y-105631800I-100000J0D01*
G01*
X128809000Y-105631800D01*
G75*
G02*
X128709000Y-105531800I0J100000D01*
G01*
X128709000Y-104256800D01*
G75*
G02*
X128809000Y-104156800I100000J0D01*
G01*
G37*
G36*
G01*
X128159000Y-104156800D02*
X128359000Y-104156800D01*
G75*
G02*
X128459000Y-104256800I0J-100000D01*
G01*
X128459000Y-105531800D01*
G75*
G02*
X128359000Y-105631800I-100000J0D01*
G01*
X128159000Y-105631800D01*
G75*
G02*
X128059000Y-105531800I0J100000D01*
G01*
X128059000Y-104256800D01*
G75*
G02*
X128159000Y-104156800I100000J0D01*
G01*
G37*
G36*
G01*
X127509000Y-104156800D02*
X127709000Y-104156800D01*
G75*
G02*
X127809000Y-104256800I0J-100000D01*
G01*
X127809000Y-105531800D01*
G75*
G02*
X127709000Y-105631800I-100000J0D01*
G01*
X127509000Y-105631800D01*
G75*
G02*
X127409000Y-105531800I0J100000D01*
G01*
X127409000Y-104256800D01*
G75*
G02*
X127509000Y-104156800I100000J0D01*
G01*
G37*
G36*
G01*
X126859000Y-104156800D02*
X127059000Y-104156800D01*
G75*
G02*
X127159000Y-104256800I0J-100000D01*
G01*
X127159000Y-105531800D01*
G75*
G02*
X127059000Y-105631800I-100000J0D01*
G01*
X126859000Y-105631800D01*
G75*
G02*
X126759000Y-105531800I0J100000D01*
G01*
X126759000Y-104256800D01*
G75*
G02*
X126859000Y-104156800I100000J0D01*
G01*
G37*
G36*
G01*
X126209000Y-104156800D02*
X126409000Y-104156800D01*
G75*
G02*
X126509000Y-104256800I0J-100000D01*
G01*
X126509000Y-105531800D01*
G75*
G02*
X126409000Y-105631800I-100000J0D01*
G01*
X126209000Y-105631800D01*
G75*
G02*
X126109000Y-105531800I0J100000D01*
G01*
X126109000Y-104256800D01*
G75*
G02*
X126209000Y-104156800I100000J0D01*
G01*
G37*
G36*
G01*
X125559000Y-104156800D02*
X125759000Y-104156800D01*
G75*
G02*
X125859000Y-104256800I0J-100000D01*
G01*
X125859000Y-105531800D01*
G75*
G02*
X125759000Y-105631800I-100000J0D01*
G01*
X125559000Y-105631800D01*
G75*
G02*
X125459000Y-105531800I0J100000D01*
G01*
X125459000Y-104256800D01*
G75*
G02*
X125559000Y-104156800I100000J0D01*
G01*
G37*
G36*
G01*
X124909000Y-104156800D02*
X125109000Y-104156800D01*
G75*
G02*
X125209000Y-104256800I0J-100000D01*
G01*
X125209000Y-105531800D01*
G75*
G02*
X125109000Y-105631800I-100000J0D01*
G01*
X124909000Y-105631800D01*
G75*
G02*
X124809000Y-105531800I0J100000D01*
G01*
X124809000Y-104256800D01*
G75*
G02*
X124909000Y-104156800I100000J0D01*
G01*
G37*
G36*
G01*
X124259000Y-104156800D02*
X124459000Y-104156800D01*
G75*
G02*
X124559000Y-104256800I0J-100000D01*
G01*
X124559000Y-105531800D01*
G75*
G02*
X124459000Y-105631800I-100000J0D01*
G01*
X124259000Y-105631800D01*
G75*
G02*
X124159000Y-105531800I0J100000D01*
G01*
X124159000Y-104256800D01*
G75*
G02*
X124259000Y-104156800I100000J0D01*
G01*
G37*
G36*
G01*
X123609000Y-104156800D02*
X123809000Y-104156800D01*
G75*
G02*
X123909000Y-104256800I0J-100000D01*
G01*
X123909000Y-105531800D01*
G75*
G02*
X123809000Y-105631800I-100000J0D01*
G01*
X123609000Y-105631800D01*
G75*
G02*
X123509000Y-105531800I0J100000D01*
G01*
X123509000Y-104256800D01*
G75*
G02*
X123609000Y-104156800I100000J0D01*
G01*
G37*
G36*
G01*
X122959000Y-104156800D02*
X123159000Y-104156800D01*
G75*
G02*
X123259000Y-104256800I0J-100000D01*
G01*
X123259000Y-105531800D01*
G75*
G02*
X123159000Y-105631800I-100000J0D01*
G01*
X122959000Y-105631800D01*
G75*
G02*
X122859000Y-105531800I0J100000D01*
G01*
X122859000Y-104256800D01*
G75*
G02*
X122959000Y-104156800I100000J0D01*
G01*
G37*
G36*
G01*
X122309000Y-104156800D02*
X122509000Y-104156800D01*
G75*
G02*
X122609000Y-104256800I0J-100000D01*
G01*
X122609000Y-105531800D01*
G75*
G02*
X122509000Y-105631800I-100000J0D01*
G01*
X122309000Y-105631800D01*
G75*
G02*
X122209000Y-105531800I0J100000D01*
G01*
X122209000Y-104256800D01*
G75*
G02*
X122309000Y-104156800I100000J0D01*
G01*
G37*
%TD*%
D13*
%TO.C,JP1*%
X150618500Y-105283000D03*
X148018500Y-105283000D03*
X149318500Y-105283000D03*
%TD*%
D10*
%TO.C,JP3*%
G36*
X120662602Y-95628700D02*
G01*
X120662602Y-95604166D01*
X120667412Y-95555335D01*
X120676984Y-95507210D01*
X120691228Y-95460255D01*
X120710005Y-95414922D01*
X120733136Y-95371649D01*
X120760396Y-95330850D01*
X120791524Y-95292921D01*
X120826221Y-95258224D01*
X120864150Y-95227096D01*
X120904949Y-95199836D01*
X120948222Y-95176705D01*
X120993555Y-95157928D01*
X121040510Y-95143684D01*
X121088635Y-95134112D01*
X121137466Y-95129302D01*
X121162000Y-95129302D01*
X121162000Y-95128700D01*
X121662000Y-95128700D01*
X121662000Y-95129302D01*
X121686534Y-95129302D01*
X121735365Y-95134112D01*
X121783490Y-95143684D01*
X121830445Y-95157928D01*
X121875778Y-95176705D01*
X121919051Y-95199836D01*
X121959850Y-95227096D01*
X121997779Y-95258224D01*
X122032476Y-95292921D01*
X122063604Y-95330850D01*
X122090864Y-95371649D01*
X122113995Y-95414922D01*
X122132772Y-95460255D01*
X122147016Y-95507210D01*
X122156588Y-95555335D01*
X122161398Y-95604166D01*
X122161398Y-95628700D01*
X122162000Y-95628700D01*
X122162000Y-96128700D01*
X120662000Y-96128700D01*
X120662000Y-95628700D01*
X120662602Y-95628700D01*
G37*
G36*
X122162000Y-96428700D02*
G01*
X122162000Y-96928700D01*
X122161398Y-96928700D01*
X122161398Y-96953234D01*
X122156588Y-97002065D01*
X122147016Y-97050190D01*
X122132772Y-97097145D01*
X122113995Y-97142478D01*
X122090864Y-97185751D01*
X122063604Y-97226550D01*
X122032476Y-97264479D01*
X121997779Y-97299176D01*
X121959850Y-97330304D01*
X121919051Y-97357564D01*
X121875778Y-97380695D01*
X121830445Y-97399472D01*
X121783490Y-97413716D01*
X121735365Y-97423288D01*
X121686534Y-97428098D01*
X121662000Y-97428098D01*
X121662000Y-97428700D01*
X121162000Y-97428700D01*
X121162000Y-97428098D01*
X121137466Y-97428098D01*
X121088635Y-97423288D01*
X121040510Y-97413716D01*
X120993555Y-97399472D01*
X120948222Y-97380695D01*
X120904949Y-97357564D01*
X120864150Y-97330304D01*
X120826221Y-97299176D01*
X120791524Y-97264479D01*
X120760396Y-97226550D01*
X120733136Y-97185751D01*
X120710005Y-97142478D01*
X120691228Y-97097145D01*
X120676984Y-97050190D01*
X120667412Y-97002065D01*
X120662602Y-96953234D01*
X120662602Y-96928700D01*
X120662000Y-96928700D01*
X120662000Y-96428700D01*
X122162000Y-96428700D01*
G37*
%TD*%
%TO.C,JP4*%
G36*
X119507100Y-105956800D02*
G01*
X119007100Y-105956800D01*
X119007100Y-105956198D01*
X118982566Y-105956198D01*
X118933735Y-105951388D01*
X118885610Y-105941816D01*
X118838655Y-105927572D01*
X118793322Y-105908795D01*
X118750049Y-105885664D01*
X118709250Y-105858404D01*
X118671321Y-105827276D01*
X118636624Y-105792579D01*
X118605496Y-105754650D01*
X118578236Y-105713851D01*
X118555105Y-105670578D01*
X118536328Y-105625245D01*
X118522084Y-105578290D01*
X118512512Y-105530165D01*
X118507702Y-105481334D01*
X118507702Y-105456800D01*
X118507100Y-105456800D01*
X118507100Y-104956800D01*
X118507702Y-104956800D01*
X118507702Y-104932266D01*
X118512512Y-104883435D01*
X118522084Y-104835310D01*
X118536328Y-104788355D01*
X118555105Y-104743022D01*
X118578236Y-104699749D01*
X118605496Y-104658950D01*
X118636624Y-104621021D01*
X118671321Y-104586324D01*
X118709250Y-104555196D01*
X118750049Y-104527936D01*
X118793322Y-104504805D01*
X118838655Y-104486028D01*
X118885610Y-104471784D01*
X118933735Y-104462212D01*
X118982566Y-104457402D01*
X119007100Y-104457402D01*
X119007100Y-104456800D01*
X119507100Y-104456800D01*
X119507100Y-105956800D01*
G37*
G36*
X120307100Y-104457402D02*
G01*
X120331634Y-104457402D01*
X120380465Y-104462212D01*
X120428590Y-104471784D01*
X120475545Y-104486028D01*
X120520878Y-104504805D01*
X120564151Y-104527936D01*
X120604950Y-104555196D01*
X120642879Y-104586324D01*
X120677576Y-104621021D01*
X120708704Y-104658950D01*
X120735964Y-104699749D01*
X120759095Y-104743022D01*
X120777872Y-104788355D01*
X120792116Y-104835310D01*
X120801688Y-104883435D01*
X120806498Y-104932266D01*
X120806498Y-104956800D01*
X120807100Y-104956800D01*
X120807100Y-105456800D01*
X120806498Y-105456800D01*
X120806498Y-105481334D01*
X120801688Y-105530165D01*
X120792116Y-105578290D01*
X120777872Y-105625245D01*
X120759095Y-105670578D01*
X120735964Y-105713851D01*
X120708704Y-105754650D01*
X120677576Y-105792579D01*
X120642879Y-105827276D01*
X120604950Y-105858404D01*
X120564151Y-105885664D01*
X120520878Y-105908795D01*
X120475545Y-105927572D01*
X120428590Y-105941816D01*
X120380465Y-105951388D01*
X120331634Y-105956198D01*
X120307100Y-105956198D01*
X120307100Y-105956800D01*
X119807100Y-105956800D01*
X119807100Y-104456800D01*
X120307100Y-104456800D01*
X120307100Y-104457402D01*
G37*
%TD*%
%TO.C,JP2*%
G36*
X116140800Y-96342300D02*
G01*
X116140800Y-95842300D01*
X116141402Y-95842300D01*
X116141402Y-95817766D01*
X116146212Y-95768935D01*
X116155784Y-95720810D01*
X116170028Y-95673855D01*
X116188805Y-95628522D01*
X116211936Y-95585249D01*
X116239196Y-95544450D01*
X116270324Y-95506521D01*
X116305021Y-95471824D01*
X116342950Y-95440696D01*
X116383749Y-95413436D01*
X116427022Y-95390305D01*
X116472355Y-95371528D01*
X116519310Y-95357284D01*
X116567435Y-95347712D01*
X116616266Y-95342902D01*
X116640800Y-95342902D01*
X116640800Y-95342300D01*
X117140800Y-95342300D01*
X117140800Y-95342902D01*
X117165334Y-95342902D01*
X117214165Y-95347712D01*
X117262290Y-95357284D01*
X117309245Y-95371528D01*
X117354578Y-95390305D01*
X117397851Y-95413436D01*
X117438650Y-95440696D01*
X117476579Y-95471824D01*
X117511276Y-95506521D01*
X117542404Y-95544450D01*
X117569664Y-95585249D01*
X117592795Y-95628522D01*
X117611572Y-95673855D01*
X117625816Y-95720810D01*
X117635388Y-95768935D01*
X117640198Y-95817766D01*
X117640198Y-95842300D01*
X117640800Y-95842300D01*
X117640800Y-96342300D01*
X116140800Y-96342300D01*
G37*
G36*
X117640198Y-97142300D02*
G01*
X117640198Y-97166834D01*
X117635388Y-97215665D01*
X117625816Y-97263790D01*
X117611572Y-97310745D01*
X117592795Y-97356078D01*
X117569664Y-97399351D01*
X117542404Y-97440150D01*
X117511276Y-97478079D01*
X117476579Y-97512776D01*
X117438650Y-97543904D01*
X117397851Y-97571164D01*
X117354578Y-97594295D01*
X117309245Y-97613072D01*
X117262290Y-97627316D01*
X117214165Y-97636888D01*
X117165334Y-97641698D01*
X117140800Y-97641698D01*
X117140800Y-97642300D01*
X116640800Y-97642300D01*
X116640800Y-97641698D01*
X116616266Y-97641698D01*
X116567435Y-97636888D01*
X116519310Y-97627316D01*
X116472355Y-97613072D01*
X116427022Y-97594295D01*
X116383749Y-97571164D01*
X116342950Y-97543904D01*
X116305021Y-97512776D01*
X116270324Y-97478079D01*
X116239196Y-97440150D01*
X116211936Y-97399351D01*
X116188805Y-97356078D01*
X116170028Y-97310745D01*
X116155784Y-97263790D01*
X116146212Y-97215665D01*
X116141402Y-97166834D01*
X116141402Y-97142300D01*
X116140800Y-97142300D01*
X116140800Y-96642300D01*
X117640800Y-96642300D01*
X117640800Y-97142300D01*
X117640198Y-97142300D01*
G37*
%TD*%
%TO.C,R5*%
G36*
G01*
X108994500Y-82658799D02*
X108994500Y-83558801D01*
G75*
G02*
X108744501Y-83808800I-249999J0D01*
G01*
X108044499Y-83808800D01*
G75*
G02*
X107794500Y-83558801I0J249999D01*
G01*
X107794500Y-82658799D01*
G75*
G02*
X108044499Y-82408800I249999J0D01*
G01*
X108744501Y-82408800D01*
G75*
G02*
X108994500Y-82658799I0J-249999D01*
G01*
G37*
G36*
G01*
X106994500Y-82658799D02*
X106994500Y-83558801D01*
G75*
G02*
X106744501Y-83808800I-249999J0D01*
G01*
X106044499Y-83808800D01*
G75*
G02*
X105794500Y-83558801I0J249999D01*
G01*
X105794500Y-82658799D01*
G75*
G02*
X106044499Y-82408800I249999J0D01*
G01*
X106744501Y-82408800D01*
G75*
G02*
X106994500Y-82658799I0J-249999D01*
G01*
G37*
%TD*%
%TO.C,R6*%
G36*
G01*
X105864200Y-80245799D02*
X105864200Y-81145801D01*
G75*
G02*
X105614201Y-81395800I-249999J0D01*
G01*
X104914199Y-81395800D01*
G75*
G02*
X104664200Y-81145801I0J249999D01*
G01*
X104664200Y-80245799D01*
G75*
G02*
X104914199Y-79995800I249999J0D01*
G01*
X105614201Y-79995800D01*
G75*
G02*
X105864200Y-80245799I0J-249999D01*
G01*
G37*
G36*
G01*
X107864200Y-80245799D02*
X107864200Y-81145801D01*
G75*
G02*
X107614201Y-81395800I-249999J0D01*
G01*
X106914199Y-81395800D01*
G75*
G02*
X106664200Y-81145801I0J249999D01*
G01*
X106664200Y-80245799D01*
G75*
G02*
X106914199Y-79995800I249999J0D01*
G01*
X107614201Y-79995800D01*
G75*
G02*
X107864200Y-80245799I0J-249999D01*
G01*
G37*
%TD*%
D14*
%TO.C,C1*%
X122466100Y-89230200D03*
D15*
X124466100Y-89230200D03*
%TD*%
%TO.C,C2*%
G36*
G01*
X122676900Y-106794900D02*
X123626900Y-106794900D01*
G75*
G02*
X123876900Y-107044900I0J-250000D01*
G01*
X123876900Y-107719900D01*
G75*
G02*
X123626900Y-107969900I-250000J0D01*
G01*
X122676900Y-107969900D01*
G75*
G02*
X122426900Y-107719900I0J250000D01*
G01*
X122426900Y-107044900D01*
G75*
G02*
X122676900Y-106794900I250000J0D01*
G01*
G37*
G36*
G01*
X122676900Y-108869900D02*
X123626900Y-108869900D01*
G75*
G02*
X123876900Y-109119900I0J-250000D01*
G01*
X123876900Y-109794900D01*
G75*
G02*
X123626900Y-110044900I-250000J0D01*
G01*
X122676900Y-110044900D01*
G75*
G02*
X122426900Y-109794900I0J250000D01*
G01*
X122426900Y-109119900D01*
G75*
G02*
X122676900Y-108869900I250000J0D01*
G01*
G37*
%TD*%
D10*
%TO.C,JP5*%
G36*
X118212300Y-76377700D02*
G01*
X118212300Y-76877700D01*
X118211698Y-76877700D01*
X118211698Y-76902234D01*
X118206888Y-76951065D01*
X118197316Y-76999190D01*
X118183072Y-77046145D01*
X118164295Y-77091478D01*
X118141164Y-77134751D01*
X118113904Y-77175550D01*
X118082776Y-77213479D01*
X118048079Y-77248176D01*
X118010150Y-77279304D01*
X117969351Y-77306564D01*
X117926078Y-77329695D01*
X117880745Y-77348472D01*
X117833790Y-77362716D01*
X117785665Y-77372288D01*
X117736834Y-77377098D01*
X117712300Y-77377098D01*
X117712300Y-77377700D01*
X117212300Y-77377700D01*
X117212300Y-77377098D01*
X117187766Y-77377098D01*
X117138935Y-77372288D01*
X117090810Y-77362716D01*
X117043855Y-77348472D01*
X116998522Y-77329695D01*
X116955249Y-77306564D01*
X116914450Y-77279304D01*
X116876521Y-77248176D01*
X116841824Y-77213479D01*
X116810696Y-77175550D01*
X116783436Y-77134751D01*
X116760305Y-77091478D01*
X116741528Y-77046145D01*
X116727284Y-76999190D01*
X116717712Y-76951065D01*
X116712902Y-76902234D01*
X116712902Y-76877700D01*
X116712300Y-76877700D01*
X116712300Y-76377700D01*
X118212300Y-76377700D01*
G37*
G36*
X116712902Y-75577700D02*
G01*
X116712902Y-75553166D01*
X116717712Y-75504335D01*
X116727284Y-75456210D01*
X116741528Y-75409255D01*
X116760305Y-75363922D01*
X116783436Y-75320649D01*
X116810696Y-75279850D01*
X116841824Y-75241921D01*
X116876521Y-75207224D01*
X116914450Y-75176096D01*
X116955249Y-75148836D01*
X116998522Y-75125705D01*
X117043855Y-75106928D01*
X117090810Y-75092684D01*
X117138935Y-75083112D01*
X117187766Y-75078302D01*
X117212300Y-75078302D01*
X117212300Y-75077700D01*
X117712300Y-75077700D01*
X117712300Y-75078302D01*
X117736834Y-75078302D01*
X117785665Y-75083112D01*
X117833790Y-75092684D01*
X117880745Y-75106928D01*
X117926078Y-75125705D01*
X117969351Y-75148836D01*
X118010150Y-75176096D01*
X118048079Y-75207224D01*
X118082776Y-75241921D01*
X118113904Y-75279850D01*
X118141164Y-75320649D01*
X118164295Y-75363922D01*
X118183072Y-75409255D01*
X118197316Y-75456210D01*
X118206888Y-75504335D01*
X118211698Y-75553166D01*
X118211698Y-75577700D01*
X118212300Y-75577700D01*
X118212300Y-76077700D01*
X116712300Y-76077700D01*
X116712300Y-75577700D01*
X116712902Y-75577700D01*
G37*
%TD*%
D16*
%TO.C,MD1*%
X114896900Y-74752200D03*
D17*
X114896900Y-77292200D03*
X114896900Y-79832200D03*
X114896900Y-82372200D03*
X114896900Y-84912200D03*
X114896900Y-87452200D03*
X114896900Y-89992200D03*
%TD*%
%TO.C,MD2*%
X130657600Y-91909900D03*
X130657600Y-89369900D03*
X130657600Y-86829900D03*
X130657600Y-84289900D03*
X130657600Y-81749900D03*
X130657600Y-79209900D03*
D16*
X130657600Y-76669900D03*
%TD*%
%TO.C,MD3*%
X137668000Y-78409800D03*
D17*
X137668000Y-80949800D03*
X137668000Y-83489800D03*
X137668000Y-86029800D03*
X137668000Y-88569800D03*
X137668000Y-91109800D03*
X137668000Y-93649800D03*
%TD*%
D10*
%TO.C,JP13*%
G36*
X155778300Y-68136200D02*
G01*
X155278300Y-68136200D01*
X155278300Y-68135598D01*
X155253766Y-68135598D01*
X155204935Y-68130788D01*
X155156810Y-68121216D01*
X155109855Y-68106972D01*
X155064522Y-68088195D01*
X155021249Y-68065064D01*
X154980450Y-68037804D01*
X154942521Y-68006676D01*
X154907824Y-67971979D01*
X154876696Y-67934050D01*
X154849436Y-67893251D01*
X154826305Y-67849978D01*
X154807528Y-67804645D01*
X154793284Y-67757690D01*
X154783712Y-67709565D01*
X154778902Y-67660734D01*
X154778902Y-67636200D01*
X154778300Y-67636200D01*
X154778300Y-67136200D01*
X154778902Y-67136200D01*
X154778902Y-67111666D01*
X154783712Y-67062835D01*
X154793284Y-67014710D01*
X154807528Y-66967755D01*
X154826305Y-66922422D01*
X154849436Y-66879149D01*
X154876696Y-66838350D01*
X154907824Y-66800421D01*
X154942521Y-66765724D01*
X154980450Y-66734596D01*
X155021249Y-66707336D01*
X155064522Y-66684205D01*
X155109855Y-66665428D01*
X155156810Y-66651184D01*
X155204935Y-66641612D01*
X155253766Y-66636802D01*
X155278300Y-66636802D01*
X155278300Y-66636200D01*
X155778300Y-66636200D01*
X155778300Y-68136200D01*
G37*
G36*
X156578300Y-66636802D02*
G01*
X156602834Y-66636802D01*
X156651665Y-66641612D01*
X156699790Y-66651184D01*
X156746745Y-66665428D01*
X156792078Y-66684205D01*
X156835351Y-66707336D01*
X156876150Y-66734596D01*
X156914079Y-66765724D01*
X156948776Y-66800421D01*
X156979904Y-66838350D01*
X157007164Y-66879149D01*
X157030295Y-66922422D01*
X157049072Y-66967755D01*
X157063316Y-67014710D01*
X157072888Y-67062835D01*
X157077698Y-67111666D01*
X157077698Y-67136200D01*
X157078300Y-67136200D01*
X157078300Y-67636200D01*
X157077698Y-67636200D01*
X157077698Y-67660734D01*
X157072888Y-67709565D01*
X157063316Y-67757690D01*
X157049072Y-67804645D01*
X157030295Y-67849978D01*
X157007164Y-67893251D01*
X156979904Y-67934050D01*
X156948776Y-67971979D01*
X156914079Y-68006676D01*
X156876150Y-68037804D01*
X156835351Y-68065064D01*
X156792078Y-68088195D01*
X156746745Y-68106972D01*
X156699790Y-68121216D01*
X156651665Y-68130788D01*
X156602834Y-68135598D01*
X156578300Y-68135598D01*
X156578300Y-68136200D01*
X156078300Y-68136200D01*
X156078300Y-66636200D01*
X156578300Y-66636200D01*
X156578300Y-66636802D01*
G37*
%TD*%
D16*
%TO.C,MD4*%
X144792700Y-78346300D03*
D17*
X144792700Y-80886300D03*
X144792700Y-83426300D03*
X144792700Y-85966300D03*
X144792700Y-88506300D03*
X144792700Y-91046300D03*
X144792700Y-93586300D03*
%TD*%
%TO.C,MD5*%
X151866600Y-93586300D03*
X151866600Y-91046300D03*
X151866600Y-88506300D03*
X151866600Y-85966300D03*
X151866600Y-83426300D03*
X151866600Y-80886300D03*
D16*
X151866600Y-78346300D03*
%TD*%
%TO.C,MD6*%
X159308800Y-78397100D03*
D17*
X159308800Y-80937100D03*
X159308800Y-83477100D03*
X159308800Y-86017100D03*
X159308800Y-88557100D03*
X159308800Y-91097100D03*
X159308800Y-93637100D03*
%TD*%
%TO.C,MD7*%
X179959000Y-97472500D03*
X179959000Y-94932500D03*
X179959000Y-92392500D03*
X179959000Y-89852500D03*
X179959000Y-87312500D03*
X179959000Y-84772500D03*
D16*
X179959000Y-82232500D03*
%TD*%
%TO.C,MD8*%
X188556900Y-82080100D03*
D17*
X188556900Y-84620100D03*
X188556900Y-87160100D03*
X188556900Y-89700100D03*
X188556900Y-92240100D03*
X188556900Y-94780100D03*
X188556900Y-97320100D03*
%TD*%
D16*
%TO.C,T1*%
X156959300Y-64782700D03*
D17*
X154419300Y-64782700D03*
X151879300Y-64782700D03*
X149339300Y-64782700D03*
X146799300Y-64782700D03*
%TD*%
D16*
%TO.C,U3*%
X188785500Y-64782700D03*
D17*
X186245500Y-64782700D03*
X183705500Y-64782700D03*
X181165500Y-64782700D03*
X178625500Y-64782700D03*
X176085500Y-64782700D03*
X173545500Y-64782700D03*
X171005500Y-64782700D03*
%TD*%
D10*
%TO.C,JP12*%
G36*
X186766900Y-83843000D02*
G01*
X186766900Y-84343000D01*
X186766298Y-84343000D01*
X186766298Y-84367534D01*
X186761488Y-84416365D01*
X186751916Y-84464490D01*
X186737672Y-84511445D01*
X186718895Y-84556778D01*
X186695764Y-84600051D01*
X186668504Y-84640850D01*
X186637376Y-84678779D01*
X186602679Y-84713476D01*
X186564750Y-84744604D01*
X186523951Y-84771864D01*
X186480678Y-84794995D01*
X186435345Y-84813772D01*
X186388390Y-84828016D01*
X186340265Y-84837588D01*
X186291434Y-84842398D01*
X186266900Y-84842398D01*
X186266900Y-84843000D01*
X185766900Y-84843000D01*
X185766900Y-84842398D01*
X185742366Y-84842398D01*
X185693535Y-84837588D01*
X185645410Y-84828016D01*
X185598455Y-84813772D01*
X185553122Y-84794995D01*
X185509849Y-84771864D01*
X185469050Y-84744604D01*
X185431121Y-84713476D01*
X185396424Y-84678779D01*
X185365296Y-84640850D01*
X185338036Y-84600051D01*
X185314905Y-84556778D01*
X185296128Y-84511445D01*
X185281884Y-84464490D01*
X185272312Y-84416365D01*
X185267502Y-84367534D01*
X185267502Y-84343000D01*
X185266900Y-84343000D01*
X185266900Y-83843000D01*
X186766900Y-83843000D01*
G37*
G36*
X185267502Y-83043000D02*
G01*
X185267502Y-83018466D01*
X185272312Y-82969635D01*
X185281884Y-82921510D01*
X185296128Y-82874555D01*
X185314905Y-82829222D01*
X185338036Y-82785949D01*
X185365296Y-82745150D01*
X185396424Y-82707221D01*
X185431121Y-82672524D01*
X185469050Y-82641396D01*
X185509849Y-82614136D01*
X185553122Y-82591005D01*
X185598455Y-82572228D01*
X185645410Y-82557984D01*
X185693535Y-82548412D01*
X185742366Y-82543602D01*
X185766900Y-82543602D01*
X185766900Y-82543000D01*
X186266900Y-82543000D01*
X186266900Y-82543602D01*
X186291434Y-82543602D01*
X186340265Y-82548412D01*
X186388390Y-82557984D01*
X186435345Y-82572228D01*
X186480678Y-82591005D01*
X186523951Y-82614136D01*
X186564750Y-82641396D01*
X186602679Y-82672524D01*
X186637376Y-82707221D01*
X186668504Y-82745150D01*
X186695764Y-82785949D01*
X186718895Y-82829222D01*
X186737672Y-82874555D01*
X186751916Y-82921510D01*
X186761488Y-82969635D01*
X186766298Y-83018466D01*
X186766298Y-83043000D01*
X186766900Y-83043000D01*
X186766900Y-83543000D01*
X185266900Y-83543000D01*
X185266900Y-83043000D01*
X185267502Y-83043000D01*
G37*
%TD*%
D14*
%TO.C,SW1*%
X111899700Y-62699900D03*
D18*
X104279700Y-60159900D03*
X111899700Y-60159900D03*
X104279700Y-62699900D03*
%TD*%
%TO.C,R7*%
G36*
G01*
X115488299Y-64166700D02*
X116388301Y-64166700D01*
G75*
G02*
X116638300Y-64416699I0J-249999D01*
G01*
X116638300Y-65116701D01*
G75*
G02*
X116388301Y-65366700I-249999J0D01*
G01*
X115488299Y-65366700D01*
G75*
G02*
X115238300Y-65116701I0J249999D01*
G01*
X115238300Y-64416699D01*
G75*
G02*
X115488299Y-64166700I249999J0D01*
G01*
G37*
G36*
G01*
X115488299Y-62166700D02*
X116388301Y-62166700D01*
G75*
G02*
X116638300Y-62416699I0J-249999D01*
G01*
X116638300Y-63116701D01*
G75*
G02*
X116388301Y-63366700I-249999J0D01*
G01*
X115488299Y-63366700D01*
G75*
G02*
X115238300Y-63116701I0J249999D01*
G01*
X115238300Y-62416699D01*
G75*
G02*
X115488299Y-62166700I249999J0D01*
G01*
G37*
%TD*%
%TO.C,R8*%
G36*
G01*
X118193399Y-62941400D02*
X119093401Y-62941400D01*
G75*
G02*
X119343400Y-63191399I0J-249999D01*
G01*
X119343400Y-63891401D01*
G75*
G02*
X119093401Y-64141400I-249999J0D01*
G01*
X118193399Y-64141400D01*
G75*
G02*
X117943400Y-63891401I0J249999D01*
G01*
X117943400Y-63191399D01*
G75*
G02*
X118193399Y-62941400I249999J0D01*
G01*
G37*
G36*
G01*
X118193399Y-64941400D02*
X119093401Y-64941400D01*
G75*
G02*
X119343400Y-65191399I0J-249999D01*
G01*
X119343400Y-65891401D01*
G75*
G02*
X119093401Y-66141400I-249999J0D01*
G01*
X118193399Y-66141400D01*
G75*
G02*
X117943400Y-65891401I0J249999D01*
G01*
X117943400Y-65191399D01*
G75*
G02*
X118193399Y-64941400I249999J0D01*
G01*
G37*
%TD*%
M02*
