%TF.GenerationSoftware,KiCad,Pcbnew,(5.1.10)-1*%
%TF.CreationDate,2022-02-28T00:28:22+01:00*%
%TF.ProjectId,E-nose,452d6e6f-7365-42e6-9b69-6361645f7063,rev?*%
%TF.SameCoordinates,Original*%
%TF.FileFunction,Copper,L1,Top*%
%TF.FilePolarity,Positive*%
%FSLAX46Y46*%
G04 Gerber Fmt 4.6, Leading zero omitted, Abs format (unit mm)*
G04 Created by KiCad (PCBNEW (5.1.10)-1) date 2022-02-28 00:28:22*
%MOMM*%
%LPD*%
G01*
G04 APERTURE LIST*
%TA.AperFunction,ComponentPad*%
%ADD10O,1.727200X1.727200*%
%TD*%
%TA.AperFunction,ComponentPad*%
%ADD11R,1.600000X1.600000*%
%TD*%
%TA.AperFunction,ComponentPad*%
%ADD12C,1.600000*%
%TD*%
%TA.AperFunction,ComponentPad*%
%ADD13R,1.700000X1.700000*%
%TD*%
%TA.AperFunction,ComponentPad*%
%ADD14O,1.700000X1.700000*%
%TD*%
%TA.AperFunction,ComponentPad*%
%ADD15O,1.600000X1.600000*%
%TD*%
%TA.AperFunction,ViaPad*%
%ADD16C,0.800000*%
%TD*%
%TA.AperFunction,Conductor*%
%ADD17C,1.000000*%
%TD*%
%TA.AperFunction,Conductor*%
%ADD18C,0.250000*%
%TD*%
%TA.AperFunction,Conductor*%
%ADD19C,0.750000*%
%TD*%
%TA.AperFunction,Conductor*%
%ADD20C,0.500000*%
%TD*%
G04 APERTURE END LIST*
D10*
%TO.P,XA1,RST2*%
%TO.N,Net-(XA1-PadRST2)*%
X166179500Y-85140800D03*
%TO.P,XA1,GND4*%
%TO.N,GND*%
X168719500Y-85140800D03*
%TO.P,XA1,MOSI*%
%TO.N,Net-(XA1-PadMOSI)*%
X168719500Y-82600800D03*
%TO.P,XA1,SCK*%
%TO.N,Net-(XA1-PadSCK)*%
X166179500Y-82600800D03*
%TO.P,XA1,5V2*%
%TO.N,+5V*%
X168719500Y-80060800D03*
%TO.P,XA1,A0*%
%TO.N,Net-(XA1-PadA0)*%
X153352500Y-108000800D03*
%TO.P,XA1,VIN*%
%TO.N,Net-(XA1-PadVIN)*%
X148272500Y-108000800D03*
%TO.P,XA1,GND3*%
%TO.N,Net-(XA1-PadGND3)*%
X145732500Y-108000800D03*
%TO.P,XA1,GND2*%
%TO.N,GND*%
X143192500Y-108000800D03*
%TO.P,XA1,5V1*%
%TO.N,+5V*%
X140652500Y-108000800D03*
%TO.P,XA1,3V3*%
%TO.N,+3V3*%
X138112500Y-108000800D03*
%TO.P,XA1,RST1*%
%TO.N,Net-(XA1-PadRST1)*%
X135572500Y-108000800D03*
%TO.P,XA1,IORF*%
%TO.N,Net-(XA1-PadIORF)*%
X133032500Y-108000800D03*
%TO.P,XA1,D21*%
%TO.N,Net-(XA1-PadD21)*%
X188912500Y-59740800D03*
%TO.P,XA1,D20*%
%TO.N,Net-(XA1-PadD20)*%
X186372500Y-59740800D03*
%TO.P,XA1,D19*%
%TO.N,Net-(XA1-PadD19)*%
X183832500Y-59740800D03*
%TO.P,XA1,D18*%
%TO.N,Net-(XA1-PadD18)*%
X181292500Y-59740800D03*
%TO.P,XA1,D17*%
%TO.N,Net-(XA1-PadD17)*%
X178752500Y-59740800D03*
%TO.P,XA1,D16*%
%TO.N,Net-(XA1-PadD16)*%
X176212500Y-59740800D03*
%TO.P,XA1,D15*%
%TO.N,Net-(XA1-PadD15)*%
X173672500Y-59740800D03*
%TO.P,XA1,D14*%
%TO.N,Net-(XA1-PadD14)*%
X171132500Y-59740800D03*
%TO.P,XA1,D0*%
%TO.N,Net-(XA1-PadD0)*%
X166052500Y-59740800D03*
%TO.P,XA1,D1*%
%TO.N,Net-(XA1-PadD1)*%
X163512500Y-59740800D03*
%TO.P,XA1,D2*%
%TO.N,Net-(XA1-PadD2)*%
X160972500Y-59740800D03*
%TO.P,XA1,D3*%
%TO.N,Net-(XA1-PadD3)*%
X158432500Y-59740800D03*
%TO.P,XA1,D4*%
%TO.N,Net-(XA1-PadD4)*%
X155892500Y-59740800D03*
%TO.P,XA1,D5*%
%TO.N,Net-(XA1-PadD5)*%
X153352500Y-59740800D03*
%TO.P,XA1,D6*%
%TO.N,Net-(XA1-PadD6)*%
X150812500Y-59740800D03*
%TO.P,XA1,D7*%
%TO.N,Net-(XA1-PadD7)*%
X148272500Y-59740800D03*
%TO.P,XA1,GND1*%
%TO.N,GND*%
X128968500Y-59740800D03*
%TO.P,XA1,D8*%
%TO.N,Net-(XA1-PadD8)*%
X144208500Y-59740800D03*
%TO.P,XA1,D9*%
%TO.N,Net-(XA1-PadD9)*%
X141668500Y-59740800D03*
%TO.P,XA1,D10*%
%TO.N,Net-(XA1-PadD10)*%
X139128500Y-59740800D03*
%TO.P,XA1,SCL*%
%TO.N,I2C_CLK*%
X121348500Y-59740800D03*
%TO.P,XA1,SDA*%
%TO.N,I2C_DATA*%
X123888500Y-59740800D03*
%TO.P,XA1,AREF*%
%TO.N,Net-(XA1-PadAREF)*%
X126428500Y-59740800D03*
%TO.P,XA1,D13*%
%TO.N,DIP1*%
X131508500Y-59740800D03*
%TO.P,XA1,D12*%
%TO.N,DIP2*%
X134048500Y-59740800D03*
%TO.P,XA1,D11*%
%TO.N,Net-(XA1-PadD11)*%
X136588500Y-59740800D03*
%TO.P,XA1,*%
%TO.N,*%
X130492500Y-108000800D03*
%TO.P,XA1,A1*%
%TO.N,Net-(XA1-PadA1)*%
X155892500Y-108000800D03*
%TO.P,XA1,A2*%
%TO.N,Net-(XA1-PadA2)*%
X158432500Y-108000800D03*
%TO.P,XA1,A3*%
%TO.N,Net-(XA1-PadA3)*%
X160972500Y-108000800D03*
%TO.P,XA1,A4*%
%TO.N,Net-(XA1-PadA4)*%
X163512500Y-108000800D03*
%TO.P,XA1,A5*%
%TO.N,Net-(XA1-PadA5)*%
X166052500Y-108000800D03*
%TO.P,XA1,A6*%
%TO.N,Net-(XA1-PadA6)*%
X168592500Y-108000800D03*
%TO.P,XA1,A7*%
%TO.N,Net-(XA1-PadA7)*%
X171132500Y-108000800D03*
%TO.P,XA1,A8*%
%TO.N,Net-(XA1-PadA8)*%
X176212500Y-108000800D03*
%TO.P,XA1,A9*%
%TO.N,Net-(XA1-PadA9)*%
X178752500Y-108000800D03*
%TO.P,XA1,A10*%
%TO.N,Net-(XA1-PadA10)*%
X181292500Y-108000800D03*
%TO.P,XA1,A11*%
%TO.N,Net-(XA1-PadA11)*%
X183832500Y-108000800D03*
%TO.P,XA1,A12*%
%TO.N,Net-(XA1-PadA12)*%
X186372500Y-108000800D03*
%TO.P,XA1,A13*%
%TO.N,Net-(XA1-PadA13)*%
X188912500Y-108000800D03*
%TO.P,XA1,A14*%
%TO.N,Net-(XA1-PadA14)*%
X191452500Y-108000800D03*
%TO.P,XA1,A15*%
%TO.N,Net-(XA1-PadA15)*%
X193992500Y-108000800D03*
%TO.P,XA1,5V3*%
%TO.N,Net-(XA1-Pad5V3)*%
X196532500Y-59740800D03*
%TO.P,XA1,5V4*%
%TO.N,Net-(XA1-Pad5V4)*%
X199072500Y-59740800D03*
%TO.P,XA1,D22*%
%TO.N,Net-(XA1-PadD22)*%
X196532500Y-62280800D03*
%TO.P,XA1,D23*%
%TO.N,Net-(XA1-PadD23)*%
X199072500Y-62280800D03*
%TO.P,XA1,D24*%
%TO.N,Net-(XA1-PadD24)*%
X196532500Y-64820800D03*
%TO.P,XA1,D25*%
%TO.N,Net-(XA1-PadD25)*%
X199072500Y-64820800D03*
%TO.P,XA1,D26*%
%TO.N,Net-(XA1-PadD26)*%
X196532500Y-67360800D03*
%TO.P,XA1,D27*%
%TO.N,Net-(XA1-PadD27)*%
X199072500Y-67360800D03*
%TO.P,XA1,D28*%
%TO.N,Net-(XA1-PadD28)*%
X196532500Y-69900800D03*
%TO.P,XA1,D29*%
%TO.N,Net-(XA1-PadD29)*%
X199072500Y-69900800D03*
%TO.P,XA1,D30*%
%TO.N,Net-(XA1-PadD30)*%
X196532500Y-72440800D03*
%TO.P,XA1,D31*%
%TO.N,Net-(XA1-PadD31)*%
X199072500Y-72440800D03*
%TO.P,XA1,D32*%
%TO.N,Net-(XA1-PadD32)*%
X196532500Y-74980800D03*
%TO.P,XA1,D33*%
%TO.N,Net-(XA1-PadD33)*%
X199072500Y-74980800D03*
%TO.P,XA1,D34*%
%TO.N,Net-(XA1-PadD34)*%
X196532500Y-77520800D03*
%TO.P,XA1,D35*%
%TO.N,Net-(XA1-PadD35)*%
X199072500Y-77520800D03*
%TO.P,XA1,D36*%
%TO.N,Net-(XA1-PadD36)*%
X196532500Y-80060800D03*
%TO.P,XA1,D37*%
%TO.N,Net-(XA1-PadD37)*%
X199072500Y-80060800D03*
%TO.P,XA1,D38*%
%TO.N,Net-(XA1-PadD38)*%
X196532500Y-82600800D03*
%TO.P,XA1,D39*%
%TO.N,Net-(XA1-PadD39)*%
X199072500Y-82600800D03*
%TO.P,XA1,D40*%
%TO.N,Net-(XA1-PadD40)*%
X196532500Y-85140800D03*
%TO.P,XA1,D41*%
%TO.N,Net-(XA1-PadD41)*%
X199072500Y-85140800D03*
%TO.P,XA1,D42*%
%TO.N,Net-(XA1-PadD42)*%
X196532500Y-87680800D03*
%TO.P,XA1,D43*%
%TO.N,Net-(XA1-PadD43)*%
X199072500Y-87680800D03*
%TO.P,XA1,D44*%
%TO.N,Net-(XA1-PadD44)*%
X196532500Y-90220800D03*
%TO.P,XA1,D45*%
%TO.N,Net-(XA1-PadD45)*%
X199072500Y-90220800D03*
%TO.P,XA1,D46*%
%TO.N,Net-(XA1-PadD46)*%
X196532500Y-92760800D03*
%TO.P,XA1,D47*%
%TO.N,Net-(XA1-PadD47)*%
X199072500Y-92760800D03*
%TO.P,XA1,D48*%
%TO.N,Net-(XA1-PadD48)*%
X196532500Y-95300800D03*
%TO.P,XA1,D49*%
%TO.N,Net-(XA1-PadD49)*%
X199072500Y-95300800D03*
%TO.P,XA1,D50*%
%TO.N,Net-(XA1-PadD50)*%
X196532500Y-97840800D03*
%TO.P,XA1,D51*%
%TO.N,Net-(XA1-PadD51)*%
X199072500Y-97840800D03*
%TO.P,XA1,D52*%
%TO.N,Net-(XA1-PadD52)*%
X196532500Y-100380800D03*
%TO.P,XA1,D53*%
%TO.N,Net-(XA1-PadD53)*%
X199072500Y-100380800D03*
%TO.P,XA1,GND5*%
%TO.N,Net-(XA1-PadGND5)*%
X196532500Y-102920800D03*
%TO.P,XA1,GND6*%
%TO.N,Net-(XA1-PadGND6)*%
X199072500Y-102920800D03*
%TO.P,XA1,MISO*%
%TO.N,Net-(XA1-PadMISO)*%
X166179500Y-80060800D03*
%TD*%
D11*
%TO.P,C1,1*%
%TO.N,VCC*%
X122466100Y-89230200D03*
D12*
%TO.P,C1,2*%
%TO.N,GND*%
X124466100Y-89230200D03*
%TD*%
D13*
%TO.P,MD1,1*%
%TO.N,VCC*%
X114896900Y-74752200D03*
D14*
%TO.P,MD1,2*%
%TO.N,Net-(JP5-Pad1)*%
X114896900Y-77292200D03*
%TO.P,MD1,3*%
%TO.N,GND*%
X114896900Y-79832200D03*
%TO.P,MD1,4*%
%TO.N,SC7*%
X114896900Y-82372200D03*
%TO.P,MD1,5*%
%TO.N,Net-(MD1-Pad5)*%
X114896900Y-84912200D03*
%TO.P,MD1,6*%
%TO.N,SD7*%
X114896900Y-87452200D03*
%TO.P,MD1,7*%
%TO.N,Net-(MD1-Pad7)*%
X114896900Y-89992200D03*
%TD*%
%TO.P,MD2,7*%
%TO.N,Net-(MD2-Pad7)*%
X130657600Y-91909900D03*
%TO.P,MD2,6*%
%TO.N,SD6*%
X130657600Y-89369900D03*
%TO.P,MD2,5*%
%TO.N,Net-(MD2-Pad5)*%
X130657600Y-86829900D03*
%TO.P,MD2,4*%
%TO.N,SC6*%
X130657600Y-84289900D03*
%TO.P,MD2,3*%
%TO.N,GND*%
X130657600Y-81749900D03*
%TO.P,MD2,2*%
%TO.N,Net-(JP6-Pad1)*%
X130657600Y-79209900D03*
D13*
%TO.P,MD2,1*%
%TO.N,VCC*%
X130657600Y-76669900D03*
%TD*%
%TO.P,MD3,1*%
%TO.N,VCC*%
X137668000Y-78409800D03*
D14*
%TO.P,MD3,2*%
%TO.N,Net-(JP7-Pad1)*%
X137668000Y-80949800D03*
%TO.P,MD3,3*%
%TO.N,GND*%
X137668000Y-83489800D03*
%TO.P,MD3,4*%
%TO.N,SC0*%
X137668000Y-86029800D03*
%TO.P,MD3,5*%
%TO.N,Net-(MD3-Pad5)*%
X137668000Y-88569800D03*
%TO.P,MD3,6*%
%TO.N,SD0*%
X137668000Y-91109800D03*
%TO.P,MD3,7*%
%TO.N,Net-(MD3-Pad7)*%
X137668000Y-93649800D03*
%TD*%
D13*
%TO.P,MD4,1*%
%TO.N,VCC*%
X144792700Y-78346300D03*
D14*
%TO.P,MD4,2*%
%TO.N,Net-(JP8-Pad1)*%
X144792700Y-80886300D03*
%TO.P,MD4,3*%
%TO.N,GND*%
X144792700Y-83426300D03*
%TO.P,MD4,4*%
%TO.N,SC1*%
X144792700Y-85966300D03*
%TO.P,MD4,5*%
%TO.N,Net-(MD4-Pad5)*%
X144792700Y-88506300D03*
%TO.P,MD4,6*%
%TO.N,SD1*%
X144792700Y-91046300D03*
%TO.P,MD4,7*%
%TO.N,Net-(MD4-Pad7)*%
X144792700Y-93586300D03*
%TD*%
%TO.P,MD5,7*%
%TO.N,Net-(MD5-Pad7)*%
X151866600Y-93586300D03*
%TO.P,MD5,6*%
%TO.N,SD3*%
X151866600Y-91046300D03*
%TO.P,MD5,5*%
%TO.N,Net-(MD5-Pad5)*%
X151866600Y-88506300D03*
%TO.P,MD5,4*%
%TO.N,SC3*%
X151866600Y-85966300D03*
%TO.P,MD5,3*%
%TO.N,GND*%
X151866600Y-83426300D03*
%TO.P,MD5,2*%
%TO.N,Net-(JP9-Pad1)*%
X151866600Y-80886300D03*
D13*
%TO.P,MD5,1*%
%TO.N,VCC*%
X151866600Y-78346300D03*
%TD*%
%TO.P,MD6,1*%
%TO.N,VCC*%
X159308800Y-78397100D03*
D14*
%TO.P,MD6,2*%
%TO.N,Net-(JP10-Pad1)*%
X159308800Y-80937100D03*
%TO.P,MD6,3*%
%TO.N,GND*%
X159308800Y-83477100D03*
%TO.P,MD6,4*%
%TO.N,SC2*%
X159308800Y-86017100D03*
%TO.P,MD6,5*%
%TO.N,Net-(MD6-Pad5)*%
X159308800Y-88557100D03*
%TO.P,MD6,6*%
%TO.N,SD2*%
X159308800Y-91097100D03*
%TO.P,MD6,7*%
%TO.N,Net-(MD6-Pad7)*%
X159308800Y-93637100D03*
%TD*%
%TO.P,MD7,7*%
%TO.N,Net-(MD7-Pad7)*%
X179959000Y-97472500D03*
%TO.P,MD7,6*%
%TO.N,SD5*%
X179959000Y-94932500D03*
%TO.P,MD7,5*%
%TO.N,Net-(MD7-Pad5)*%
X179959000Y-92392500D03*
%TO.P,MD7,4*%
%TO.N,SC5*%
X179959000Y-89852500D03*
%TO.P,MD7,3*%
%TO.N,GND*%
X179959000Y-87312500D03*
%TO.P,MD7,2*%
%TO.N,Net-(JP11-Pad1)*%
X179959000Y-84772500D03*
D13*
%TO.P,MD7,1*%
%TO.N,VCC*%
X179959000Y-82232500D03*
%TD*%
%TO.P,MD8,1*%
%TO.N,VCC*%
X188556900Y-82080100D03*
D14*
%TO.P,MD8,2*%
%TO.N,Net-(JP12-Pad1)*%
X188556900Y-84620100D03*
%TO.P,MD8,3*%
%TO.N,GND*%
X188556900Y-87160100D03*
%TO.P,MD8,4*%
%TO.N,SC4*%
X188556900Y-89700100D03*
%TO.P,MD8,5*%
%TO.N,Net-(MD8-Pad5)*%
X188556900Y-92240100D03*
%TO.P,MD8,6*%
%TO.N,SD4*%
X188556900Y-94780100D03*
%TO.P,MD8,7*%
%TO.N,Net-(MD8-Pad7)*%
X188556900Y-97320100D03*
%TD*%
D13*
%TO.P,T1,1*%
%TO.N,VCC*%
X156959300Y-64782700D03*
D14*
%TO.P,T1,2*%
%TO.N,Net-(JP13-Pad1)*%
X154419300Y-64782700D03*
%TO.P,T1,3*%
%TO.N,GND*%
X151879300Y-64782700D03*
%TO.P,T1,4*%
%TO.N,I2C_CLK*%
X149339300Y-64782700D03*
%TO.P,T1,5*%
%TO.N,I2C_DATA*%
X146799300Y-64782700D03*
%TD*%
D13*
%TO.P,U3,1*%
%TO.N,VCC*%
X188785500Y-64782700D03*
D14*
%TO.P,U3,2*%
%TO.N,GND*%
X186245500Y-64782700D03*
%TO.P,U3,3*%
%TO.N,I2C_CLK*%
X183705500Y-64782700D03*
%TO.P,U3,4*%
%TO.N,I2C_DATA*%
X181165500Y-64782700D03*
%TO.P,U3,5*%
%TO.N,Net-(U3-Pad5)*%
X178625500Y-64782700D03*
%TO.P,U3,6*%
%TO.N,Net-(U3-Pad6)*%
X176085500Y-64782700D03*
%TO.P,U3,7*%
%TO.N,Net-(U3-Pad7)*%
X173545500Y-64782700D03*
%TO.P,U3,8*%
%TO.N,Net-(U3-Pad8)*%
X171005500Y-64782700D03*
%TD*%
D11*
%TO.P,SW1,1*%
%TO.N,DIP1*%
X111899700Y-62699900D03*
D15*
%TO.P,SW1,3*%
%TO.N,VCC*%
X104279700Y-60159900D03*
%TO.P,SW1,2*%
%TO.N,DIP2*%
X111899700Y-60159900D03*
%TO.P,SW1,4*%
%TO.N,VCC*%
X104279700Y-62699900D03*
%TD*%
D16*
%TO.N,GND*%
X131787900Y-98971100D03*
X128270000Y-108432600D03*
%TO.N,Net-(JP4-Pad1)*%
X117068600Y-105346500D03*
X124828300Y-106464100D03*
%TO.N,VCC*%
X117487700Y-99161600D03*
X110096300Y-95643700D03*
X127177800Y-107137200D03*
%TO.N,+5V*%
X162877500Y-102171500D03*
%TO.N,I2C_CLK*%
X126453900Y-67627500D03*
%TO.N,I2C_DATA*%
X125056900Y-66738500D03*
%TD*%
D17*
%TO.N,GND*%
X114896900Y-79832200D02*
X121602500Y-79832200D01*
X123520200Y-81749900D02*
X130657600Y-81749900D01*
X130657600Y-81749900D02*
X132270500Y-81749900D01*
X132270500Y-81749900D02*
X133997700Y-83477100D01*
X134048500Y-83426300D02*
X144792700Y-83426300D01*
D18*
X133997700Y-83477100D02*
X134048500Y-83426300D01*
X159258000Y-83426300D02*
X159308800Y-83477100D01*
D17*
X144792700Y-83426300D02*
X159258000Y-83426300D01*
D18*
X123387100Y-81616800D02*
X123329700Y-81559400D01*
X123329700Y-81559400D02*
X123520200Y-81749900D01*
X121602500Y-79832200D02*
X123329700Y-81559400D01*
X188404500Y-87312500D02*
X188556900Y-87160100D01*
D17*
X179959000Y-87312500D02*
X188404500Y-87312500D01*
X123387100Y-80638400D02*
X123387100Y-81934300D01*
D18*
X123387100Y-81934300D02*
X123387100Y-81616800D01*
X144373600Y-72364600D02*
X144221200Y-72364600D01*
X131660900Y-72364600D02*
X131311650Y-72713850D01*
D17*
X144221200Y-72364600D02*
X131660900Y-72364600D01*
X131311650Y-72713850D02*
X123387100Y-80638400D01*
D18*
X131470400Y-72555100D02*
X131311650Y-72713850D01*
D17*
X186245500Y-64782700D02*
X186245500Y-69913500D01*
X186245500Y-69913500D02*
X185039000Y-71120000D01*
X146024600Y-72364600D02*
X144373600Y-72364600D01*
X147269200Y-71120000D02*
X146024600Y-72364600D01*
X188556900Y-87160100D02*
X190182500Y-87160100D01*
X190182500Y-87160100D02*
X191223900Y-86118700D01*
X191223900Y-86118700D02*
X191223900Y-77609700D01*
X184734200Y-71120000D02*
X183603900Y-71120000D01*
X191223900Y-77609700D02*
X184734200Y-71120000D01*
D18*
X185039000Y-71120000D02*
X183603900Y-71120000D01*
D17*
X134162800Y-98971100D02*
X131787900Y-98971100D01*
X143192500Y-108000800D02*
X134162800Y-98971100D01*
X151803100Y-65214500D02*
X151803100Y-68427600D01*
D18*
X151879300Y-67995800D02*
X151447500Y-68427600D01*
D17*
X151447500Y-68427600D02*
X133845300Y-68427600D01*
X133845300Y-68427600D02*
X122034300Y-80238600D01*
X129413000Y-101346000D02*
X131787900Y-98971100D01*
X129413000Y-106184700D02*
X129413000Y-101346000D01*
X128968500Y-59740800D02*
X128968500Y-68275200D01*
X122034300Y-75209400D02*
X122034300Y-80238600D01*
X128968500Y-68275200D02*
X122034300Y-75209400D01*
X124466100Y-82670400D02*
X122034300Y-80238600D01*
X131787900Y-98971100D02*
X130098800Y-98971100D01*
X124466100Y-93338400D02*
X124466100Y-89230200D01*
X130098800Y-98971100D02*
X124466100Y-93338400D01*
X124466100Y-82670400D02*
X124466100Y-89230200D01*
D18*
X129413000Y-106184700D02*
X129413000Y-106514900D01*
D17*
X128270000Y-107657900D02*
X128270000Y-108432600D01*
X129413000Y-106514900D02*
X128270000Y-107657900D01*
X168719500Y-85140800D02*
X171069000Y-85140800D01*
X171069000Y-85140800D02*
X174548800Y-81661000D01*
X174548800Y-74320400D02*
X171348400Y-71120000D01*
X174548800Y-81661000D02*
X174548800Y-74320400D01*
X171348400Y-71120000D02*
X147269200Y-71120000D01*
X183603900Y-71120000D02*
X171348400Y-71120000D01*
D18*
%TO.N,Net-(JP4-Pad1)*%
X118186200Y-106464100D02*
X117068600Y-105346500D01*
X124828300Y-106464100D02*
X118186200Y-106464100D01*
D19*
%TO.N,VCC*%
X119265700Y-99161600D02*
X127234950Y-107130850D01*
X117487700Y-99161600D02*
X119265700Y-99161600D01*
X113614200Y-99161600D02*
X110096300Y-95643700D01*
X117487700Y-99161600D02*
X113614200Y-99161600D01*
D18*
X104279700Y-60159900D02*
X104279700Y-62699900D01*
X104279700Y-64135000D02*
X114896900Y-74752200D01*
X104279700Y-62699900D02*
X104279700Y-64135000D01*
%TO.N,+5V*%
X162725100Y-102019100D02*
X162877500Y-102171500D01*
D20*
X162725100Y-78371700D02*
X162725100Y-102019100D01*
X168719500Y-79082900D02*
X168008300Y-78371700D01*
X168008300Y-78371700D02*
X162725100Y-78371700D01*
D18*
X168719500Y-80060800D02*
X168719500Y-79082900D01*
%TO.N,I2C_CLK*%
X124256800Y-67627500D02*
X126453900Y-67627500D01*
X121348500Y-64719200D02*
X124256800Y-67627500D01*
X121348500Y-59740800D02*
X121348500Y-64719200D01*
%TO.N,I2C_DATA*%
X123888500Y-65570100D02*
X125056900Y-66738500D01*
X123888500Y-59740800D02*
X123888500Y-65570100D01*
%TD*%
M02*
